<?xml version="1.0" encoding="UTF-8" standalone="no"?> <svg width="64" height="64" viewBox="0 0 64 64" fill="none" xmlns="http://www.w3.org/2000/svg">
<path d="M36.1184 2.99268L11.0024 9.72668L20.5854 45.4687L45.7014 38.7347L36.1184 2.99268Z" fill="#F9E109"/>
<path d="M45.69 38.74L20.58 45.47L11 9.73L26.5 5.58C27.4361 6.49274 28.6925 7.00248 30 7H37.18L45.69 38.74Z" fill="#FCBC04"/>
<path d="M43 9H17V46H43V9Z" fill="#F8664F"/>
<path d="M43 38V46H17V9H25V22C25.0016 24.841 25.7592 27.6304 27.1949 30.0819C28.6307 32.5335 30.6929 34.5588 33.17 35.95C33.0756 35.4434 33.1125 34.9211 33.277 34.4327C33.4415 33.9443 33.7283 33.5062 34.11 33.16C34.7155 32.6523 35.4913 32.3936 36.2804 32.4363C37.0694 32.479 37.8128 32.8199 38.36 33.39L42.97 38H43Z" fill="#CC5144"/>
<path d="M43 24C44.5913 24 46.1174 24.6321 47.2426 25.7574C48.3679 26.8826 49 28.4087 49 30V44H43V24Z" fill="#F9E109"/>
<path d="M49 37.41V44H43V24C43.6821 23.9982 44.3591 24.1167 45 24.35V28.02C45.0015 29.7737 45.3564 31.509 46.0437 33.1224C46.731 34.7357 47.7364 36.194 49 37.41V37.41Z" fill="#FCBC04"/>
<path d="M49 51H35V61H49V51Z" fill="#FCBC04"/>
<path d="M49 51V56H43C41.6739 56 40.4021 56.5268 39.4645 57.4645C38.5268 58.4021 38 59.6739 38 61H35V51H49Z" fill="#E59730"/>
<path d="M30 46H46V54H35C33.6739 54 32.4021 53.4732 31.4645 52.5355C30.5268 51.5979 30 50.3261 30 49V46Z" fill="#F9E109"/>
<path d="M30 46V49C30 50.3261 30.5268 51.5979 31.4645 52.5355C32.4021 53.4732 33.6739 54 35 54H46V46H30ZM37 51C36.0276 50.9995 35.0764 50.7154 34.2629 50.1826C33.4494 49.6498 32.809 48.8913 32.42 48H37C37.0011 49.0539 37.2805 50.0888 37.81 51H37Z" fill="#FCBC04"/>
<path d="M47.243 38.9L41.343 33C40.7962 32.4307 40.0537 32.0902 39.2655 32.0473C38.4774 32.0044 37.7023 32.2624 37.097 32.769C36.7938 33.0413 36.5493 33.3724 36.3784 33.7423C36.2074 34.1122 36.1136 34.513 36.1027 34.9203C36.0917 35.3277 36.1639 35.7329 36.3147 36.1115C36.4655 36.49 36.6919 36.8338 36.98 37.122L42.439 42.581C41.4115 43.066 40.5428 43.8327 39.934 44.792C39.3252 45.7513 39.0013 46.8638 39 48C39 49.5913 39.6321 51.1174 40.7574 52.2426C41.8826 53.3679 43.4087 54 45 54H46C46.7956 54 47.5587 53.6839 48.1213 53.1213C48.6839 52.5587 49 51.7956 49 51V43.142C48.9999 41.551 48.3679 40.0251 47.243 38.9V38.9Z" fill="#F7F754"/>
<path d="M49 51C49 51.7956 48.6839 52.5587 48.1213 53.1213C47.5587 53.6839 46.7957 54 46 54H45C43.6391 53.9969 42.3197 53.5313 41.2583 52.6795C40.1969 51.8277 39.4566 50.6404 39.1589 49.3124C38.8612 47.9845 39.0238 46.5948 39.62 45.3714C40.2163 44.1481 41.2106 43.1637 42.44 42.58L36.98 37.12C36.465 36.6117 36.153 35.9331 36.1023 35.2113C36.0517 34.4895 36.266 33.7739 36.7051 33.1988C37.1441 32.6236 37.7778 32.2282 38.4874 32.0867C39.197 31.9452 39.9339 32.0672 40.56 32.43C40.3963 32.5286 40.2423 32.6424 40.1 32.77C39.7962 33.0415 39.5511 33.3721 39.3796 33.7417C39.2081 34.1112 39.1138 34.5119 39.1026 34.9191C39.0913 35.3264 39.1634 35.7316 39.3142 36.1101C39.4651 36.4885 39.6917 36.8322 39.98 37.12L43.78 40.92C43.9658 41.1087 44.1125 41.3324 44.2116 41.578C44.3107 41.8236 44.3603 42.0864 44.3575 42.3512C44.3547 42.6161 44.2996 42.8778 44.1953 43.1212C44.0911 43.3647 43.9397 43.5852 43.75 43.77C42.6296 44.8926 42.0002 46.4139 42 48C42 48.7956 42.3161 49.5587 42.8787 50.1213C43.4413 50.6839 44.2044 51 45 51H49Z" fill="#F9E109"/>
<path d="M17.728 58.172L14.192 54.636L17.728 51.101L14.899 48.272L11.364 51.808L7.828 48.272L5 51.101L8.536 54.636L5 58.172L7.828 61L11.364 57.464L14.899 61L17.728 58.172Z" fill="#F8664F"/>
<path d="M54 19C53.4577 19 52.9358 18.793 52.5409 18.4213C52.146 18.0497 51.9079 17.5413 51.875 17L51.187 5.99C51.1637 5.60618 51.2191 5.22164 51.3499 4.86004C51.4807 4.49844 51.6841 4.16743 51.9476 3.88736C52.2111 3.6073 52.5291 3.3841 52.8821 3.23149C53.235 3.07889 53.6155 3.00011 54 3V3C54.3849 3.00008 54.7657 3.07897 55.1189 3.23182C55.4722 3.38467 55.7904 3.60823 56.0539 3.88873C56.3175 4.16924 56.5208 4.50074 56.6513 4.86281C56.7819 5.22488 56.8369 5.60985 56.813 5.994L56.125 17C56.0921 17.5413 55.854 18.0497 55.4591 18.4213C55.0642 18.793 54.5423 19 54 19V19Z" fill="#F9E109"/>
<path d="M54 27C55.1046 27 56 26.1046 56 25C56 23.8954 55.1046 23 54 23C52.8954 23 52 23.8954 52 25C52 26.1046 52.8954 27 54 27Z" fill="#F9E109"/>
<path d="M56.12 16.99V17C56.0868 17.5398 55.849 18.0465 55.4551 18.417C55.0612 18.7875 54.5408 18.9937 54 18.9937C53.4592 18.9937 52.9388 18.7875 52.5449 18.417C52.151 18.0465 51.9132 17.5398 51.88 17L51.19 5.99001C51.1497 5.34077 51.3361 4.69768 51.7173 4.17058C52.0984 3.64349 52.6508 3.26509 53.28 3.10001C53.1992 3.38932 53.1688 3.69037 53.19 3.99001L53.88 15C53.9119 15.5408 54.1491 16.049 54.5431 16.4207C54.9371 16.7925 55.4583 16.9997 56 17C56.0403 17.0016 56.0806 16.9983 56.12 16.99V16.99Z" fill="#FCBC04"/>
<path d="M55.82 25.82C55.6882 26.1166 55.4861 26.3766 55.2313 26.5777C54.9765 26.7787 54.6766 26.9147 54.3575 26.974C54.0384 27.0332 53.7096 27.0139 53.3996 26.9177C53.0897 26.8215 52.8078 26.6513 52.5782 26.4218C52.3487 26.1923 52.1785 25.9104 52.0823 25.6004C51.9861 25.2904 51.9668 24.9616 52.0261 24.6425C52.0853 24.3234 52.2213 24.0235 52.4223 23.7687C52.6234 23.5139 52.8834 23.3119 53.18 23.18C53.0593 23.4364 52.9978 23.7166 53 24C53.0016 24.53 53.2128 25.0377 53.5875 25.4125C53.9623 25.7872 54.4701 25.9984 55 26C55.2834 26.0022 55.5636 25.9407 55.82 25.82V25.82Z" fill="#FCBC04"/>
<path d="M16.314 49.686L17.728 51.1L14.192 54.635L17.728 58.171L14.9 61L11.365 57.464L7.828 61L5 58.172L8.536 54.636L5 51.1L6.414 49.685L9.95 53.222C10.3257 53.5957 10.8341 53.8055 11.364 53.8055C11.8939 53.8055 12.4023 53.5957 12.778 53.222L16.314 49.686Z" fill="#CC5144"/>
<path d="M39 25H38.977C38.8457 24.997 38.7162 24.9682 38.596 24.9151C38.4758 24.8621 38.3673 24.7859 38.2766 24.6909C38.1858 24.5959 38.1147 24.484 38.0672 24.3615C38.0198 24.239 37.9969 24.1083 38 23.977L38.229 14.042L29 14C28.7348 14 28.4804 13.8946 28.2929 13.7071C28.1054 13.5196 28 13.2652 28 13C28 12.7348 28.1054 12.4804 28.2929 12.2929C28.4804 12.1054 28.7348 12 29 12L39.252 12.046C39.3849 12.0466 39.5163 12.0737 39.6385 12.1257C39.7608 12.1777 39.8715 12.2535 39.9641 12.3488C40.0567 12.444 40.1295 12.5567 40.178 12.6804C40.2266 12.8041 40.2501 12.9362 40.247 13.069L40 24.023C39.994 24.2842 39.886 24.5327 39.6991 24.7153C39.5122 24.8979 39.2613 25.0001 39 25V25Z" fill="#F89C8D"/>
</svg>
