<?xml version="1.0" encoding="UTF-8"?>
<!DOCTYPE svg PUBLIC "-//W3C//DTD SVG 1.1//EN" "http://www.w3.org/Graphics/SVG/1.1/DTD/svg11.dtd">
<!-- Creator: CorelDRAW -->
<svg xmlns="http://www.w3.org/2000/svg" xml:space="preserve" width="1.70666in" height="1.70666in" version="1.1" style="shape-rendering:geometricPrecision; text-rendering:geometricPrecision; image-rendering:optimizeQuality; fill-rule:evenodd; clip-rule:evenodd"
viewBox="0 0 1707 1707"
 xmlns:xlink="http://www.w3.org/1999/xlink">
 <defs>
  <style type="text/css">
   <![CDATA[
    .fil2 {fill:#000002}
    .fil1 {fill:#333333}
    .fil6 {fill:#D9D9D9}
    .fil0 {fill:white}
    .fil4 {fill:url(#id0)}
    .fil3 {fill:url(#id1)}
    .fil5 {fill:url(#id2)}
   ]]>
  </style>
  <linearGradient id="id0" gradientUnits="userSpaceOnUse" x1="1431.83" y1="1246.28" x2="1431.83" y2="950.795">
   <stop offset="0" style="stop-opacity:1; stop-color:#E6E6E6"/>
   <stop offset="1" style="stop-opacity:1; stop-color:#CCCCCC"/>
  </linearGradient>
  <linearGradient id="id1" gradientUnits="userSpaceOnUse" x1="1021.65" y1="0" x2="1021.65" y2="1438.82">
   <stop offset="0" style="stop-opacity:1; stop-color:#00AB94"/>
   <stop offset="1" style="stop-opacity:1; stop-color:#06CFB4"/>
  </linearGradient>
  <linearGradient id="id2" gradientUnits="userSpaceOnUse" xlink:href="#id0" x1="1070.2" y1="972.236" x2="1070.2" y2="589.665">
  </linearGradient>
 </defs>
 <g id="Layer_x0020_1">
  <metadata id="CorelCorpID_0Corel-Layer"/>
  <path class="fil0" d="M353 1470l-63 105 54 91c23,5 47,7 72,7 25,0 50,-3 74,-8l52 -90 -61 -105 -128 0z"/>
  <path class="fil0" d="M510 1454l61 105 99 0c35,-39 60,-85 75,-137l-43 -73 -131 0 -61 105z"/>
  <path class="fil0" d="M87 1422c14,52 39,98 74,137l99 0 13 -21 51 -85 -60 -104 -135 0 -42 73z"/>
  <path class="fil0" d="M132 1315l132 0 60 -105 -55 -90 -8 -15 -100 0c-34,38 -59,83 -73,133l44 77z"/>
  <path class="fil0" d="M290 1088l63 105 128 0 61 -105 -52 -89c-24,-5 -49,-8 -74,-8 -25,0 -49,2 -72,7l-54 90z"/>
  <path class="fil0" d="M510 1210l61 105 131 0 43 -74c-15,-51 -40,-97 -75,-136l-99 0 -16 28 -45 77z"/>
  <path class="fil1" d="M416 1707c-207,0 -375,-168 -375,-375 0,-207 168,-375 375,-375 206,0 374,168 374,375 0,207 -168,375 -374,375zm0 -716c-189,0 -342,153 -342,341 0,188 153,341 342,341 188,0 341,-153 341,-341 0,-188 -153,-341 -341,-341z"/>
  <path class="fil2" d="M491 1470l-147 0c-6,0 -12,-3 -15,-8l-70 -122c-3,-5 -3,-11 0,-16l70 -122c3,-5 9,-9 15,-9l147 0c6,0 11,4 14,9l71 122c3,5 3,11 0,16l-71 122c-3,5 -8,8 -14,8zm-138 -33l128 0 61 -105 -61 -105 -128 0 -60 105 60 105z"/>
  <path class="fil1" d="M54 1412c-5,8 -2,18 6,23 8,4 18,1 23,-7l46 -79 135 0 60 104 -51 85 -13 21 -107 0c-9,0 -17,7 -17,16 0,10 8,17 17,17l42 0c30,25 64,46 101,60l23 37c3,5 9,8 14,8 3,0 6,-1 9,-2 8,-5 11,-15 6,-23l-58 -97 63 -105 128 0 61 105 -56 96c-4,8 -1,19 7,23 8,5 18,2 23,-6l21 -37c36,-14 70,-34 99,-59l42 0c9,0 17,-7 17,-17 0,-9 -8,-16 -17,-16l-107 0 -61 -105 61 -105 131 0 46 79c5,8 15,11 23,7 8,-5 11,-15 6,-23l-23 -40c2,-13 3,-26 3,-40 0,-14 -1,-27 -3,-40l-23 40 10 17 -10 -17 46 -80c5,-8 2,-18 -6,-23 -8,-4 -18,-2 -23,6l-46 80 -131 0 -61 -105 45 -77 16 -28 107 0c9,0 17,-7 17,-17 0,-9 -8,-16 -17,-16l-42 0c-29,-25 -63,-45 -99,-59l-21 -37c-5,-8 -15,-11 -23,-6 -8,4 -11,15 -7,23l56 95 -61 105 -128 0 -63 -105 58 -96c5,-8 2,-18 -6,-23 -8,-5 -18,-2 -23,6l-23 37c-37,14 -71,34 -101,60l-42 0c-9,0 -17,7 -17,16 0,10 8,17 17,17l108 0 8 15 55 90 -60 105 -132 0 -48 -83c-5,-8 -15,-11 -23,-7 -8,5 -11,15 -6,23l22 39c-2,15 -3,30 -3,45 0,14 1,27 3,40l-23 40zm427 25l52 -90 -52 90 0 0z"/>
  <path class="fil3" d="M1334 1439c-1,0 -1,0 -1,0 -10,0 -20,-5 -27,-12 -16,-17 -36,-39 -59,-66 -63,-73 -170,-195 -226,-216 -9,-4 -205,-84 -342,-174 -22,-15 -45,-30 -69,-45 -66,-43 -134,-87 -196,-132 -32,-24 -44,-62 -32,-99 13,-38 47,-65 84,-65 16,0 39,5 60,27 23,25 78,53 126,72 -54,-39 -168,-126 -234,-203 -35,-43 -47,-96 -28,-136 12,-26 36,-42 64,-42 20,0 51,9 85,49 52,60 141,135 199,174 -32,-41 -96,-113 -228,-234 -48,-44 -66,-96 -49,-139 14,-36 49,-59 90,-59 43,0 86,26 117,70 54,76 176,222 234,266 -6,-13 -17,-33 -41,-61l-140 -167c0,-1 -1,-1 -1,-2 -46,-64 -58,-139 -30,-193 16,-33 46,-52 80,-52 35,0 88,20 147,113l161 258c-1,-88 8,-183 51,-222 17,-19 39,-30 64,-30 46,0 92,37 103,82l162 682 197 197c7,7 11,16 11,27 0,10 -4,19 -11,26l-295 295c-7,7 -16,11 -26,11z"/>
  <path class="fil1" d="M1139 1241c-19,-19 -37,-37 -55,-53l361 -360 13 55 20 20 -339 338z"/>
  <path class="fil4" d="M1526 951l54 54 -231 230c-7,8 -17,11 -27,11 -10,0 -19,-3 -27,-11 -15,-15 -15,-39 0,-54l231 -230z"/>
  <path class="fil5" d="M1019 972c-10,0 -19,-3 -27,-11l-102 -102c-15,-15 -15,-39 0,-54l204 -204c15,-15 39,-15 54,0l102 102c15,15 15,39 0,54l-204 204c-7,8 -17,11 -27,11z"/>
  <path class="fil6" d="M324 1210l-55 -90 -8 -15 -100 0c-34,38 -59,83 -73,133l44 77 132 0 60 -105z"/>
  <path class="fil6" d="M542 1088l-52 -89c-24,-5 -49,-8 -74,-8 -25,0 -49,2 -72,7l-54 90 63 105 128 0 61 -105z"/>
  <path class="fil6" d="M745 1241c-15,-51 -40,-97 -75,-136l-99 0 -16 28 -45 77 61 105 131 0 43 -74z"/>
  <path class="fil6" d="M745 1422l-43 -73 -131 0 -61 105 61 105 99 0c35,-39 60,-85 75,-137z"/>
  <path class="fil6" d="M542 1575l-61 -105 -128 0 -63 105 54 91c23,5 47,7 72,7 25,0 50,-3 74,-8l52 -90z"/>
  <path class="fil6" d="M273 1538l51 -85 -60 -104 -135 0 -42 73c14,52 39,98 74,137l99 0 13 -21z"/>
 </g>
</svg>
