<?xml version="1.0" encoding="utf-8"?>
<!-- Generator: Adobe Illustrator 17.1.0, SVG Export Plug-In . SVG Version: 6.00 Build 0)  -->
<!DOCTYPE svg PUBLIC "-//W3C//DTD SVG 1.1//EN" "http://www.w3.org/Graphics/SVG/1.1/DTD/svg11.dtd">
<svg version="1.1" xmlns="http://www.w3.org/2000/svg" xmlns:xlink="http://www.w3.org/1999/xlink" x="0px" y="0px"
	 viewBox="0 0 64 64" enable-background="new 0 0 64 64" xml:space="preserve">
<g id="guide" display="none">
</g>
<g id="fill_outline">
	<g id="strategy_3_">
		<g>
			<rect x="11" y="3" fill="#4D4D4D" width="42" height="58"/>
			<path d="M53,62H11c-0.553,0-1-0.448-1-1V3c0-0.552,0.447-1,1-1h42c0.553,0,1,0.448,1,1v58C54,61.552,53.553,62,53,62z M12,60h40
				V4H12V60z"/>
		</g>
		<rect x="24" y="3" fill="#FFFFFF" width="16" height="8"/>
		<rect x="24" y="53" fill="#FFFFFF" width="16" height="8"/>
		<path d="M40,12H24c-0.553,0-1-0.448-1-1V3c0-0.552,0.447-1,1-1h16c0.553,0,1,0.448,1,1v8C41,11.552,40.553,12,40,12z M25,10h14V4
			H25V10z"/>
		<rect x="33" y="52" width="2" height="2"/>
		<path d="M40,62H24c-0.553,0-1-0.448-1-1v-8c0-0.552,0.447-1,1-1h7v2h-6v6h14v-6h-2v-2h3c0.553,0,1,0.448,1,1v8
			C41,61.552,40.553,62,40,62z"/>
		<g>
			<circle fill="#FFFFFF" cx="32" cy="32" r="4"/>
			<path d="M32,37c-2.757,0-5-2.243-5-5s2.243-5,5-5s5,2.243,5,5S34.757,37,32,37z M32,29c-1.654,0-3,1.346-3,3s1.346,3,3,3
				s3-1.346,3-3S33.654,29,32,29z"/>
		</g>
		<g>
			<circle fill="#ED1C24" cx="43" cy="24" r="2"/>
			<path d="M43,27c-1.654,0-3-1.346-3-3s1.346-3,3-3s3,1.346,3,3S44.654,27,43,27z M43,23c-0.552,0-1,0.449-1,1s0.448,1,1,1
				s1-0.449,1-1S43.552,23,43,23z"/>
		</g>
		<g>
			<circle fill="#3EBBDD" cx="20" cy="16" r="2"/>
			<path d="M20,19c-1.654,0-3-1.346-3-3s1.346-3,3-3s3,1.346,3,3S21.654,19,20,19z M20,15c-0.552,0-1,0.449-1,1s0.448,1,1,1
				s1-0.449,1-1S20.552,15,20,15z"/>
		</g>
		<g>
			<path fill="#FFFFFF" d="M16,3h-5v5C13.761,8,16,5.761,16,3z"/>
			<path d="M11,9c-0.553,0-1-0.448-1-1V3c0-0.552,0.447-1,1-1h5c0.553,0,1,0.448,1,1C17,6.309,14.309,9,11,9z M12,4v2.874
				c1.403-0.363,2.511-1.47,2.873-2.874H12z"/>
		</g>
		<g>
			<path fill="#FFFFFF" d="M53,8V3h-5C48,5.761,50.239,8,53,8z"/>
			<path d="M53,9c-3.309,0-6-2.691-6-6c0-0.552,0.447-1,1-1h5c0.553,0,1,0.448,1,1v5C54,8.552,53.553,9,53,9z M49.127,4
				c0.362,1.404,1.47,2.511,2.873,2.874V4H49.127z"/>
		</g>
		<g>
			<path fill="#FFFFFF" d="M11,56v5h5C16,58.239,13.761,56,11,56z"/>
			<path d="M16,62h-5c-0.553,0-1-0.448-1-1v-5c0-0.552,0.447-1,1-1c3.309,0,6,2.691,6,6C17,61.552,16.553,62,16,62z M12,60h2.873
				c-0.362-1.404-1.47-2.511-2.873-2.874V60z"/>
		</g>
		<g>
			<path fill="#FFFFFF" d="M53,56c-2.761,0-5,2.239-5,5h5V56z"/>
			<path d="M53,62h-5c-0.553,0-1-0.448-1-1c0-3.309,2.691-6,6-6c0.553,0,1,0.448,1,1v5C54,61.552,53.553,62,53,62z M49.127,60H52
				v-2.874C50.597,57.489,49.489,58.596,49.127,60z"/>
		</g>
		<g>
			<circle fill="#3EBBDD" cx="25" cy="46" r="2"/>
			<path d="M25,49c-1.654,0-3-1.346-3-3s1.346-3,3-3s3,1.346,3,3S26.654,49,25,49z M25,45c-0.552,0-1,0.449-1,1s0.448,1,1,1
				s1-0.449,1-1S25.552,45,25,45z"/>
		</g>
		<path d="M30.152,45.988l-0.307-1.977C30.343,43.934,42,41.948,42,29h2C44,43.688,30.291,45.967,30.152,45.988z"/>
		<path d="M37.387,25.014c-2.193,0-9.194-0.408-14.094-5.307l1.414-1.414c5.122,5.123,13.151,4.713,13.234,4.709l0.117,1.996
			C38.005,25.001,37.769,25.014,37.387,25.014z"/>
		<rect x="11" y="31" width="42" height="2"/>
	</g>
</g>
<g id="flat" display="none">
	<g id="strategy_2_" display="inline">
		<path fill="#666666" d="M53,2H11c-0.553,0-1,0.448-1,1v58c0,0.552,0.447,1,1,1h42c0.553,0,1-0.448,1-1V3C54,2.448,53.553,2,53,2z"
			/>
		<rect x="10" y="31" fill="#FFFFFF" width="44" height="2"/>
		<path fill="#FFFFFF" d="M32,37c-2.757,0-5-2.243-5-5s2.243-5,5-5s5,2.243,5,5S34.757,37,32,37z M32,29c-1.654,0-3,1.346-3,3
			s1.346,3,3,3s3-1.346,3-3S33.654,29,32,29z"/>
		<path fill="#FFFFFF" d="M43,27c-1.654,0-3-1.346-3-3s1.346-3,3-3s3,1.346,3,3S44.654,27,43,27z M43,23c-0.552,0-1,0.449-1,1
			s0.448,1,1,1s1-0.449,1-1S43.552,23,43,23z"/>
		<path fill="#FFFFFF" d="M20,19c-1.654,0-3-1.346-3-3s1.346-3,3-3s3,1.346,3,3S21.654,19,20,19z M20,15c-0.552,0-1,0.449-1,1
			s0.448,1,1,1s1-0.449,1-1S20.552,15,20,15z"/>
		<path fill="#666666" d="M11,62h3.7c-0.673-2.252-2.448-4.026-4.7-4.7V61C10,61.552,10.447,62,11,62z"/>
		<rect x="25" y="2" fill="#666666" width="14" height="8"/>
		<path fill="#666666" d="M10,3v3.7c2.252-0.674,4.026-2.448,4.7-4.7H11C10.447,2,10,2.448,10,3z"/>
		<path fill="#666666" d="M53,2h-3.7c0.673,2.252,2.448,4.026,4.7,4.7V3C54,2.448,53.553,2,53,2z"/>
		<path fill="#666666" d="M54,61v-3.7c-2.252,0.674-4.026,2.448-4.7,4.7H53C53.553,62,54,61.552,54,61z"/>
		<rect x="25" y="54" fill="#666666" width="14" height="8"/>
		<path fill="#FFFFFF" d="M24,12h16c0.553,0,1-0.448,1-1V2h-2v8H25V2h-2v9C23,11.552,23.447,12,24,12z"/>
		<path fill="#FFFFFF" d="M40,52H24c-0.553,0-1,0.448-1,1v9h2v-8h14v8h2v-9C41,52.448,40.553,52,40,52z"/>
		<path fill="#FFFFFF" d="M54,8.768V6.7c-2.252-0.674-4.026-2.448-4.7-4.7h-2.068C47.998,5.357,50.642,8.002,54,8.768z"/>
		<path fill="#FFFFFF" d="M16.768,2H14.7c-0.673,2.252-2.448,4.026-4.7,4.7v2.069C13.358,8.002,16.002,5.357,16.768,2z"/>
		<path fill="#FFFFFF" d="M47.232,62H49.3c0.673-2.252,2.448-4.026,4.7-4.7v-2.069C50.642,55.998,47.998,58.643,47.232,62z"/>
		<path fill="#FFFFFF" d="M10,55.232V57.3c2.252,0.674,4.026,2.448,4.7,4.7h2.068C16.002,58.643,13.358,55.998,10,55.232z"/>
		<path fill="#FFFFFF" d="M25,49c-1.654,0-3-1.346-3-3s1.346-3,3-3s3,1.346,3,3S26.654,49,25,49z M25,45c-0.552,0-1,0.449-1,1
			s0.448,1,1,1s1-0.449,1-1S25.552,45,25,45z"/>
		<path fill="#FFFFFF" d="M30.152,45.988l-0.307-1.977C30.343,43.934,42,41.948,42,29h2C44,43.688,30.291,45.967,30.152,45.988z"/>
		<path fill="#FFFFFF" d="M37.387,25.014c-2.193,0-9.194-0.408-14.094-5.307l1.414-1.414c5.122,5.123,13.151,4.713,13.234,4.709
			l0.117,1.996C38.005,25.001,37.769,25.014,37.387,25.014z"/>
	</g>
</g>
<g id="outline__x28_Expand_x2F_Unite_x29_" display="none">
	<g id="strategy_1_" display="inline">
		<rect x="33" y="52" width="2" height="2"/>
		<path d="M46,24c0-1.654-1.346-3-3-3s-3,1.346-3,3s1.346,3,3,3S46,25.654,46,24z M43,25c-0.552,0-1-0.449-1-1s0.448-1,1-1
			s1,0.449,1,1S43.552,25,43,25z"/>
		<path d="M20,13c-1.654,0-3,1.346-3,3s1.346,3,3,3s3-1.346,3-3S21.654,13,20,13z M20,17c-0.552,0-1-0.449-1-1s0.448-1,1-1
			s1,0.449,1,1S20.552,17,20,17z"/>
		<path d="M53,2h-5h-8H24h-8h-5c-0.553,0-1,0.448-1,1v5v48v5c0,0.552,0.447,1,1,1h5h8h16h8h5c0.553,0,1-0.448,1-1v-5V8V3
			C54,2.448,53.553,2,53,2z M42,29c0,0.7-0.04,1.362-0.105,2h-4.996c-0.465-2.279-2.484-4-4.899-4s-4.434,1.721-4.899,4H12V8.91
			c2.507-0.423,4.486-2.403,4.91-4.91H23v7c0,0.552,0.447,1,1,1h16c0.553,0,1-0.448,1-1V4h6.09c0.423,2.507,2.403,4.486,4.91,4.91
			V31h-8.099C43.96,30.358,44,29.697,44,29H42z M29.184,31c0.414-1.161,1.514-2,2.816-2s2.402,0.839,2.816,2H29.184z M34.816,33
			c-0.414,1.161-1.514,2-2.816,2s-2.402-0.839-2.816-2H34.816z M52,4v2.874C50.597,6.511,49.489,5.404,49.127,4H52z M39,4v6H25V4H39
			z M12,4h2.873C14.511,5.404,13.403,6.511,12,6.874V4z M12,60v-2.874c1.403,0.363,2.511,1.47,2.873,2.874H12z M25,60v-6h6v-2h-7
			c-0.553,0-1,0.448-1,1v7h-6.09c-0.423-2.507-2.403-4.486-4.91-4.91V33h15.101c0.465,2.279,2.484,4,4.899,4s4.434-1.721,4.899-4
			h4.676c-2.089,9.369-11.289,10.943-11.729,11.012l0.307,1.977C30.277,45.969,41.416,44.112,43.62,33H52v22.09
			c-2.507,0.423-4.486,2.403-4.91,4.91H41v-7c0-0.552-0.447-1-1-1h-3v2h2v6H25z M52,60h-2.873c0.362-1.404,1.47-2.511,2.873-2.874
			V60z"/>
		<path d="M25,43c-1.654,0-3,1.346-3,3s1.346,3,3,3s3-1.346,3-3S26.654,43,25,43z M25,47c-0.552,0-1-0.449-1-1s0.448-1,1-1
			s1,0.449,1,1S25.552,47,25,47z"/>
		<path d="M24.707,18.293l-1.414,1.414c4.899,4.899,11.9,5.307,14.094,5.307c0.382,0,0.618-0.012,0.672-0.016l-0.117-1.996
			C37.858,23.006,29.829,23.416,24.707,18.293z"/>
	</g>
</g>
<g id="outline__x28_Non-Ex_x29_" display="none">
	<g id="strategy" display="inline">
		
			<rect x="11" y="3" fill="none" stroke="#000000" stroke-width="2" stroke-linejoin="round" stroke-miterlimit="10" width="42" height="58"/>
		
			<rect x="24" y="3" fill="none" stroke="#000000" stroke-width="2" stroke-linejoin="round" stroke-miterlimit="10" width="16" height="8"/>
		
			<line fill="none" stroke="#000000" stroke-width="2" stroke-linejoin="round" stroke-miterlimit="10" x1="33" y1="53" x2="35" y2="53"/>
		<polyline fill="none" stroke="#000000" stroke-width="2" stroke-linejoin="round" stroke-miterlimit="10" points="37,53 40,53 
			40,61 24,61 24,53 31,53 		"/>
		
			<line fill="none" stroke="#000000" stroke-width="2" stroke-linejoin="round" stroke-miterlimit="10" x1="11" y1="32" x2="53" y2="32"/>
		<circle fill="none" stroke="#000000" stroke-width="2" stroke-linejoin="round" stroke-miterlimit="10" cx="32" cy="32" r="4"/>
		<circle fill="none" stroke="#000000" stroke-width="2" stroke-linejoin="round" stroke-miterlimit="10" cx="43" cy="24" r="2"/>
		<circle fill="none" stroke="#000000" stroke-width="2" stroke-linejoin="round" stroke-miterlimit="10" cx="20" cy="16" r="2"/>
		<path fill="none" stroke="#000000" stroke-width="2" stroke-linejoin="round" stroke-miterlimit="10" d="M16,3h-5v5
			C13.761,8,16,5.761,16,3z"/>
		<path fill="none" stroke="#000000" stroke-width="2" stroke-linejoin="round" stroke-miterlimit="10" d="M53,8V3h-5
			C48,5.761,50.239,8,53,8z"/>
		<path fill="none" stroke="#000000" stroke-width="2" stroke-linejoin="round" stroke-miterlimit="10" d="M11,56v5h5
			C16,58.239,13.761,56,11,56z"/>
		<path fill="none" stroke="#000000" stroke-width="2" stroke-linejoin="round" stroke-miterlimit="10" d="M53,56
			c-2.761,0-5,2.239-5,5h5V56z"/>
		<circle fill="none" stroke="#000000" stroke-width="2" stroke-linejoin="round" stroke-miterlimit="10" cx="25" cy="46" r="2"/>
		<path fill="none" stroke="#000000" stroke-width="2" stroke-linejoin="round" stroke-miterlimit="10" d="M30,45c0,0,13-2,13-16"/>
		<path fill="none" stroke="#000000" stroke-width="2" stroke-linejoin="round" stroke-miterlimit="10" d="M38,24c0,0-8.5,0.5-14-5"
			/>
	</g>
</g>
<g id="tag" display="none">
</g>
</svg>
