<?xml version="1.0" encoding="UTF-8" standalone="no"?> <svg id="Layer_1" data-name="Layer 1" xmlns="http://www.w3.org/2000/svg" viewBox="0 0 48 48"><defs><style>.cls-1{fill:#ffa221;}.cls-2{fill:#ff8200;}.cls-3{fill:#ffc343;}</style></defs><path class="cls-1" d="M24,47a1.006,1.006,0,0,1-.3-.045C10.628,42.869,4,30.436,4,10a1,1,0,0,1,.821-.984C4.929,9,15.69,6.982,23.4,1.2a1,1,0,0,1,1.2,0C32.31,6.982,43.071,9,43.179,9.016A1,1,0,0,1,44,10c0,20.436-6.628,32.869-19.7,36.955A1.006,1.006,0,0,1,24,47Z"/><path class="cls-2" d="M23.4,1.2C15.69,6.982,4.929,9,4.821,9.016A1,1,0,0,0,4,10c0,20.436,6.628,32.869,19.7,36.955A1.006,1.006,0,0,0,24,47V1A1,1,0,0,0,23.4,1.2Z"/><path class="cls-3" d="M24,41.7a1.009,1.009,0,0,1-.37-.071C14.541,38.013,9.785,28.961,9.089,13.958a1,1,0,0,1,.728-1.009A55.906,55.906,0,0,0,23.479,7.174a1,1,0,0,1,1.042,0,55.906,55.906,0,0,0,13.662,5.775,1,1,0,0,1,.728,1.009c-.7,15-5.452,24.055-14.541,27.671A1.009,1.009,0,0,1,24,41.7Z"/><path class="cls-1" d="M23.479,7.174A55.906,55.906,0,0,1,9.817,12.949a1,1,0,0,0-.728,1.009c.7,15,5.452,24.055,14.541,27.671A1.009,1.009,0,0,0,24,41.7V7.027A1,1,0,0,0,23.479,7.174Z"/></svg>