<?xml version="1.0" encoding="UTF-8" standalone="no"?> <svg width="64" height="64" viewBox="0 0 64 64" fill="none" xmlns="http://www.w3.org/2000/svg">
<path d="M55 3H9C5.68629 3 3 5.68629 3 9V55C3 58.3137 5.68629 61 9 61H55C58.3137 61 61 58.3137 61 55V9C61 5.68629 58.3137 3 55 3Z" fill="#3D9AE2"/>
<path d="M61 9V55C61 56.5913 60.3679 58.1174 59.2426 59.2426C58.1174 60.3679 56.5913 61 55 61H9C7.97084 61.0014 6.95877 60.737 6.06177 60.2324C5.16478 59.7279 4.41327 59.0002 3.88 58.12C4.81765 58.6984 5.89831 59.0032 7 59H53C54.5913 59 56.1174 58.3679 57.2426 57.2426C58.3679 56.1174 59 54.5913 59 53V7C59.0032 5.89831 58.6984 4.81765 58.12 3.88C59.0002 4.41327 59.7279 5.16478 60.2324 6.06177C60.737 6.95877 61.0014 7.97084 61 9V9Z" fill="#1E81CE"/>
<path d="M32 20C28.8369 20.001 25.7451 20.9398 23.1156 22.6977C20.486 24.4557 18.4366 26.9538 17.2266 29.8763C16.0166 32.7988 15.7003 36.0144 16.3176 39.1167C16.9349 42.219 18.4582 45.0685 20.6948 47.3052C22.9315 49.5418 25.7811 51.0651 28.8833 51.6824C31.9856 52.2997 35.2012 51.9834 38.1237 50.7734C41.0462 49.5634 43.5444 47.5141 45.3023 44.8845C47.0602 42.2549 47.999 39.1631 48 36H32V20Z" fill="#1E81CE"/>
<path d="M36 16V32H52C52 27.7565 50.3143 23.6869 47.3137 20.6863C44.3131 17.6857 40.2435 16 36 16Z" fill="#1E81CE"/>
<path d="M30 18V34L18.69 45.31C16.4514 43.0733 14.9266 40.2229 14.3085 37.1194C13.6903 34.0158 14.0067 30.7987 15.2175 27.875C16.4283 24.9513 18.4791 22.4525 21.1105 20.6947C23.7419 18.9368 26.8355 17.9991 30 18V18Z" fill="#FFD422"/>
<path d="M18.69 45.31L30 34L41.31 45.31C39.8256 46.7968 38.0626 47.9763 36.1219 48.781C34.1813 49.5858 32.1009 50 30 50C27.8991 50 25.8187 49.5858 23.8781 48.781C21.9374 47.9763 20.1744 46.7968 18.69 45.31V45.31Z" fill="#FF5023"/>
<path d="M30 34H46C46.0038 36.1015 45.5913 38.1829 44.7863 40.1241C43.9813 42.0653 42.7998 43.8279 41.31 45.31L30 34Z" fill="#FF9811"/>
<path d="M50 30H34V14C38.2435 14 42.3131 15.6857 45.3137 18.6863C48.3143 21.6869 50 25.7565 50 30Z" fill="#00CCB3"/>
<path d="M55 2H9C7.14422 2.00238 5.36512 2.74064 4.05288 4.05288C2.74064 5.36512 2.00238 7.14422 2 9V55C2.00238 56.8558 2.74064 58.6349 4.05288 59.9471C5.36512 61.2594 7.14422 61.9976 9 62H55C56.8558 61.9976 58.6349 61.2594 59.9471 59.9471C61.2594 58.6349 61.9976 56.8558 62 55V9C61.9976 7.14422 61.2594 5.36512 59.9471 4.05288C58.6349 2.74064 56.8558 2.00238 55 2V2ZM60 55C59.9984 56.3256 59.4711 57.5964 58.5338 58.5338C57.5964 59.4711 56.3256 59.9984 55 60H9C7.6744 59.9984 6.40356 59.4711 5.46622 58.5338C4.52888 57.5964 4.00159 56.3256 4 55V9C4.00159 7.6744 4.52888 6.40356 5.46622 5.46622C6.40356 4.52888 7.6744 4.00159 9 4H55C56.3256 4.00159 57.5964 4.52888 58.5338 5.46622C59.4711 6.40356 59.9984 7.6744 60 9V55Z" fill="black"/>
<path d="M8 55V49H6V55C6 55.7956 6.31607 56.5587 6.87868 57.1213C7.44129 57.6839 8.20435 58 9 58H15V56H9C8.73478 56 8.48043 55.8946 8.29289 55.7071C8.10536 55.5196 8 55.2652 8 55Z" fill="black"/>
<path d="M55 6H49V8H55C55.2652 8 55.5196 8.10536 55.7071 8.29289C55.8946 8.48043 56 8.73478 56 9V14H58V9C58 8.20435 57.6839 7.44129 57.1213 6.87868C56.5587 6.31607 55.7956 6 55 6Z" fill="black"/>
<path d="M19 56H17V58H19V56Z" fill="black"/>
<path d="M47 6H45V8H47V6Z" fill="black"/>
<path d="M34 13C33.7348 13 33.4804 13.1054 33.2929 13.2929C33.1054 13.4804 33 13.7348 33 14V30C33 30.2652 33.1054 30.5196 33.2929 30.7071C33.4804 30.8946 33.7348 31 34 31H50C50.2652 31 50.5196 30.8946 50.7071 30.7071C50.8946 30.5196 51 30.2652 51 30C50.995 25.4929 49.2023 21.1718 46.0153 17.9847C42.8282 14.7977 38.5071 13.005 34 13V13ZM35 29V15.033C38.623 15.2796 42.0341 16.8304 44.6018 19.3982C47.1696 21.9659 48.7204 25.377 48.967 29H35Z" fill="black"/>
<path d="M46 33H31V18C31 17.7348 30.8947 17.4804 30.7071 17.2929C30.5196 17.1054 30.2652 17 30 17C26.6377 17 23.3509 17.997 20.5553 19.865C17.7597 21.733 15.5807 24.388 14.2941 27.4944C13.0074 30.6007 12.6707 34.0189 13.3267 37.3165C13.9826 40.6142 15.6017 43.6433 17.9792 46.0208C20.3567 48.3983 23.3858 50.0174 26.6835 50.6734C29.9811 51.3293 33.3993 50.9926 36.5056 49.706C39.612 48.4193 42.267 46.2403 44.135 43.4447C46.003 40.6491 47 37.3623 47 34C47 33.7348 46.8947 33.4804 46.7071 33.2929C46.5196 33.1054 46.2652 33 46 33ZM29 19.033V33.586L18.71 43.876C16.8687 41.7712 15.6525 39.1936 15.1986 36.4341C14.7447 33.6746 15.0713 30.8432 16.1415 28.2595C17.2116 25.6759 18.9828 23.4428 21.2549 21.8124C23.527 20.1821 26.2097 19.2194 29 19.033V19.033ZM30 49C26.3655 49.0102 22.8529 47.6906 20.124 45.29L30 35.414L39.876 45.29C37.1472 47.6906 33.6345 49.0102 30 49V49ZM41.29 43.876L32.414 35H44.968C44.7582 38.2842 43.4647 41.406 41.29 43.876Z" fill="black"/>
</svg>
