<?xml version="1.0" encoding="UTF-8" standalone="no"?> <svg xmlns="http://www.w3.org/2000/svg" viewBox="0 0 64 64"><title>t-shirt</title><g id="_08-tshirt" data-name="08-tshirt"><path d="M62.09,30.66,51.51,33.6a.6.6,0,0,1-.72-.42l-1.43-4.81s.37,25.87,1.39,31.09a.608.608,0,0,1-.48.73q-3.63.6-7.01.93a112.633,112.633,0,0,1-21.5.18c-1.84-.17-3.42-.37-4.69-.56-1.45-.21-2.51-.41-3.12-.53a.618.618,0,0,1-.46-.74c.96-4.89,1.35-28.35,1.39-30.88v-.22s-1.02,3.42-1.43,4.81a.6.6,0,0,1-.72.42L2.16,30.66a.628.628,0,0,1-.4-.83L9.72,8.48a2.244,2.244,0,0,1,1.13-1.25L19.43,3a26.265,26.265,0,0,0,5.05,6.22c3.9,3.43,9.7,5.78,16.08-.96A31.639,31.639,0,0,0,44.5,3l8.89,4.23a2.244,2.244,0,0,1,1.13,1.25l7.97,21.35A.628.628,0,0,1,62.09,30.66Z" style="fill:#b73434"/><path d="M4.76,30.83,12.72,9.48a2.244,2.244,0,0,1,1.13-1.25l6.791-3.348C19.861,3.776,19.43,3,19.43,3L10.85,7.23A2.244,2.244,0,0,0,9.72,8.48L1.76,29.83a.628.628,0,0,0,.4.83l2.67.743A.641.641,0,0,1,4.76,30.83Z" style="fill:#f1d6d6"/><path d="M17.838,37,17.07,60.74c-1.45-.21-2.51-.41-3.12-.53a.618.618,0,0,1-.46-.74c.96-4.89,1.35-28.35,1.39-30.88L15,28h0A14.225,14.225,0,0,1,17.838,37Z" style="fill:#f1d6d6"/><path d="M49.933,48.987C31.694,48.7,17,34.718,17,17.5A29.814,29.814,0,0,1,20.15,4.163C19.683,3.456,19.43,3,19.43,3L10.85,7.23A2.244,2.244,0,0,0,9.72,8.48L1.76,29.83a.628.628,0,0,0,.4.83L12.73,33.6a.6.6,0,0,0,.72-.42c.41-1.39,1.43-4.81,1.43-4.81v.22c-.04,2.53-.43,25.99-1.39,30.88a.618.618,0,0,0,.46.74c.61.12,1.67.32,3.12.53,1.27.19,2.85.39,4.69.56a112.633,112.633,0,0,0,21.5-.18q3.375-.33,7.01-.93a.608.608,0,0,0,.48-.73A97.814,97.814,0,0,1,49.933,48.987Z" style="opacity:0.2"/><path d="M43.26,61.12c-2.2.23-4.32.38-6.34.48-3.18.15-6.12.16-8.76.08-2.38-.07-4.53-.21-6.4-.38v-.01L24.48,9.22a13.349,13.349,0,0,0,5.51,3.08A8.722,8.722,0,0,0,35,12.09a13.966,13.966,0,0,0,5.56-3.83Z" style="fill:#2f62b5"/><path d="M37,61l-.08.6c-3.18.15-6.12.16-8.76.08L28,61l.45-11,1.1-27,.44-10.7A8.722,8.722,0,0,0,35,12.09L35.45,23l1.1,27Z" style="fill:#b73434"/><path d="M38,26v2.863L32.621,42H29.3l5.512-13H28V26Z" style="fill:#fcc529"/></g></svg>