<?xml version="1.0" encoding="UTF-8"?>
<!DOCTYPE svg PUBLIC "-//W3C//DTD SVG 1.1//EN" "http://www.w3.org/Graphics/SVG/1.1/DTD/svg11.dtd">
<!-- Creator: CorelDRAW -->
<svg xmlns="http://www.w3.org/2000/svg" xml:space="preserve" width="1.70666in" height="1.70666in" version="1.1" style="shape-rendering:geometricPrecision; text-rendering:geometricPrecision; image-rendering:optimizeQuality; fill-rule:evenodd; clip-rule:evenodd"
viewBox="0 0 1707 1707"
 xmlns:xlink="http://www.w3.org/1999/xlink">
 <defs>
  <style type="text/css">
   <![CDATA[
    .fil2 {fill:#000002}
    .fil1 {fill:#7ED63F}
    .fil0 {fill:#FE5022}
   ]]>
  </style>
 </defs>
 <g id="Layer_x0020_1">
  <metadata id="CorelCorpID_0Corel-Layer"/>
  <path class="fil0" d="M989 1641l0 -201c0,-16 -13,-29 -29,-29l-180 0c-16,0 -29,14 -29,30l0 200c78,7 160,7 238,0z"/>
  <path class="fil1" d="M528 836l-50 -87c-119,52 -197,129 -179,209 54,-50 133,-92 229,-122z"/>
  <path class="fil1" d="M550 722l54 93c71,-16 148,-25 228,-28l0 -109c-107,4 -202,20 -282,44z"/>
  <path class="fil1" d="M908 678l0 109c80,3 157,12 228,28l54 -93c-80,-24 -175,-40 -282,-44z"/>
  <path class="fil1" d="M1262 749l-50 87c96,30 175,72 229,122 18,-80 -60,-157 -179,-209z"/>
  <path class="fil0" d="M1311 361l0 -202c-28,12 -66,22 -111,22 -51,0 -113,-13 -181,-53 -6,-3 -51,-23 -111,-31l0 209c83,10 144,39 148,42 127,73 221,33 255,13z"/>
  <path class="fil1" d="M870 1053c-130,0 -272,20 -389,70 16,7 33,13 51,20 7,0 13,2 18,5 89,28 197,45 320,45 124,0 234,-17 323,-46 3,-2 7,-3 12,-4 19,-6 37,-13 54,-20 -60,-26 -130,-45 -206,-57 -68,-9 -110,-13 -183,-13z"/>
  <path class="fil1" d="M1444 1095c-54,51 -124,88 -195,114l0 70c117,-48 190,-115 195,-184z"/>
  <path class="fil0" d="M1444 1247c-46,45 -113,84 -195,114l0 81c121,-49 194,-120 195,-191l0 -4z"/>
  <path class="fil1" d="M1441 1412c-46,44 -111,82 -192,111l0 58c109,-45 178,-107 192,-169z"/>
  <path class="fil1" d="M960 1335c58,0 105,47 105,105l0 191c38,-6 74,-14 107,-24l0 -375c-90,24 -192,37 -302,37 -110,0 -212,-13 -302,-37l0 375c33,10 69,18 107,24l0 -190c0,-59 47,-106 105,-106l180 0z"/>
  <path class="fil1" d="M492 1523c-82,-29 -147,-67 -193,-111 14,62 83,124 193,169l0 -58z"/>
  <path class="fil0" d="M296 1251c0,70 74,141 196,191l0 -81c-83,-30 -150,-69 -196,-114l0 4z"/>
  <path class="fil1" d="M296 1095c5,69 78,136 196,184l0 -70c-72,-26 -142,-63 -196,-114z"/>
  <path class="fil2" d="M1295 344l0 -201c-29,11 -67,21 -111,21 -52,0 -113,-13 -181,-52 -7,-3 -52,-23 -111,-32l0 209c82,10 143,40 145,41 1,0 2,1 3,1 127,74 221,33 255,13zm-442 909c-109,0 -212,-14 -302,-37l0 100c0,1 0,1 0,2l0 161c0,0 0,1 0,1l0 111c33,9 69,17 107,23l0 -190c0,-58 48,-106 106,-106l180 0c57,0 104,47 104,105l0 191c39,-6 74,-14 107,-23l0 -111 0 -1 0 -162 0 -1 0 -100c-89,23 -192,37 -302,37zm-378 -61c-41,-15 -78,-32 -111,-51 -3,-1 -5,-3 -8,-5 -29,-17 -55,-37 -76,-58 4,69 77,137 195,185l0 -71zm-272 -275c2,-180 267,-322 612,-332l0 -546c0,-22 17,-39 38,-39l2 0 0 0c101,4 179,42 182,44 1,0 2,1 3,1 155,90 261,9 268,4 2,-2 5,-4 8,-5l1 -1 0 0 1 0 0 0 1 -1 0 0 1 0 0 0 0 0 1 0 0 0 1 -1 0 0c14,-4 30,1 40,12 6,8 9,17 9,26l0 284c0,11 -4,23 -14,30l0 1 0 0c-6,5 -71,56 -173,56 -52,0 -113,-13 -181,-52 -7,-3 -52,-23 -111,-32l0 219c345,10 610,152 612,332 0,1 0,1 0,2l0 0 0 0 0 151 0 1 0 2 0 160 0 1 0 0 0 138c0,188 -286,334 -651,334 -364,0 -650,-146 -650,-334l0 -138 0 0 0 -1 0 -161 0 -1 0 -1 0 -151 0 0 0 0c0,-1 0,-1 0,-2zm1224 161c-21,21 -47,41 -77,58 -2,2 -5,4 -7,5 -33,19 -70,36 -111,51l0 70c118,-47 190,-115 195,-184zm-612 -416c-107,3 -202,19 -281,44l53 93c71,-16 148,-26 228,-28l0 -109zm-354 71c-115,49 -182,119 -182,186l0 0c0,7 1,15 3,23 54,-51 134,-93 229,-123l-50 -86zm-141 278c16,18 36,35 60,51 64,-34 141,-61 226,-78l-56 -97c-101,29 -183,72 -230,124zm144 95c17,7 34,14 52,20 6,0 12,2 17,6 89,27 197,44 320,44 124,0 234,-17 323,-45 4,-2 8,-4 12,-4 19,-7 37,-13 54,-21 -60,-25 -130,-44 -206,-56 -1,0 -2,-1 -3,-1 -57,-9 -118,-13 -180,-13 -62,0 -122,4 -180,13 0,0 -1,1 -2,1 -76,12 -147,31 -207,56zm862 -44c24,-16 44,-33 60,-51 -47,-52 -128,-95 -229,-124l-56 97c84,17 162,44 225,78zm99 -120c2,-8 2,-16 2,-23l0 0c0,-67 -66,-137 -181,-186l-50 86c95,30 175,72 229,123zm-252 -236c-79,-25 -174,-41 -281,-44l0 109c80,2 157,12 227,28l54 -93zm-894 524l0 4c0,71 74,142 196,191l0 -81c-83,-30 -149,-69 -196,-114zm3 166c14,62 83,124 193,168l0 -57c-81,-29 -147,-68 -193,-111zm453 228c37,4 77,6 118,6 42,0 81,-2 119,-6l0 -201c0,-16 -13,-28 -28,-28l-180 0c-16,0 -29,13 -29,29l0 200zm497 -60c110,-44 179,-106 193,-168 -47,43 -112,82 -193,111l0 57zm195 -329l0 -5c-46,45 -112,84 -195,114l0 81c121,-49 195,-120 195,-190zm-741 -265c42,-5 85,-9 129,-10l0 -113c-65,2 -129,9 -188,21l59 102zm206 -10c43,1 86,5 128,10l59 -102c-59,-12 -122,-19 -187,-21l0 113z"/>
  <path class="fil0" d="M1386 1011c-47,-52 -128,-95 -229,-124l-56 97c84,17 162,44 225,78 24,-16 44,-33 60,-51z"/>
  <path class="fil0" d="M1020 970l59 -102c-59,-12 -122,-19 -187,-21l0 113c43,1 86,5 128,10z"/>
  <path class="fil0" d="M815 960l0 -113c-65,2 -129,9 -188,21l59 102c42,-5 85,-9 129,-10z"/>
  <path class="fil0" d="M606 984l-56 -97c-101,29 -183,72 -230,124 16,18 36,35 60,51 64,-34 141,-61 226,-78z"/>
 </g>
</svg>
