<?xml version="1.0" encoding="UTF-8" standalone="no"?> <svg width="64" height="64" viewBox="0 0 64 64" fill="none" xmlns="http://www.w3.org/2000/svg">
<path d="M19 29H3V37H19V29Z" fill="#F8664F"/>
<path d="M19 45H3V53H19V45Z" fill="#F8664F"/>
<path d="M29 37H13V45H29V37Z" fill="#F8664F"/>
<path d="M29 53H13V61H29V53Z" fill="#F8664F"/>
<path d="M35 29H19V37H35V29Z" fill="#F8664F"/>
<path d="M35 45H19V53H35V45Z" fill="#F8664F"/>
<path d="M45 37H29V45H45V37Z" fill="#F8664F"/>
<path d="M45 53H29V61H45V53Z" fill="#F8664F"/>
<path d="M51 29H35V37H51V29Z" fill="#F8664F"/>
<path d="M51 45H35V53H51V45Z" fill="#F8664F"/>
<path d="M61 37H45V45H61V37Z" fill="#F8664F"/>
<path d="M61 53H45V61H61V53Z" fill="#F8664F"/>
<path d="M13 37H3V45H13V37Z" fill="#F8664F"/>
<path d="M13 53H3V61H13V53Z" fill="#F8664F"/>
<path d="M61 45H51V53H61V45Z" fill="#F8664F"/>
<path d="M52 57C50.9391 57 49.9217 56.5786 49.1716 55.8284C48.4214 55.0783 48 54.0609 48 53H45V61H61V57H52Z" fill="#CC5144"/>
<path d="M42 49C40.9391 49 39.9217 48.5786 39.1716 47.8284C38.4214 47.0783 38 46.0609 38 45H35V53H51V49H42Z" fill="#CC5144"/>
<path d="M26 49C24.9391 49 23.9217 48.5786 23.1716 47.8284C22.4214 47.0783 22 46.0609 22 45H19V53H35V49H26Z" fill="#CC5144"/>
<path d="M10 49C8.93913 49 7.92172 48.5786 7.17157 47.8284C6.42143 47.0783 6 46.0609 6 45H3V53H19V49H10Z" fill="#CC5144"/>
<path d="M36 57C34.9391 57 33.9217 56.5786 33.1716 55.8284C32.4214 55.0783 32 54.0609 32 53H29V61H45V57H36Z" fill="#CC5144"/>
<path d="M20 57C18.9391 57 17.9217 56.5786 17.1716 55.8284C16.4214 55.0783 16 54.0609 16 53H13V61H29V57H20Z" fill="#CC5144"/>
<path d="M10 57C8.93913 57 7.92172 56.5786 7.17157 55.8284C6.42143 55.0783 6 54.0609 6 53H3V61H13V57H10Z" fill="#CC5144"/>
<path d="M52 41C50.9391 41 49.9217 40.5786 49.1716 39.8284C48.4214 39.0783 48 38.0609 48 37H45V45H61V41H52Z" fill="#CC5144"/>
<path d="M36 41C34.9391 41 33.9217 40.5786 33.1716 39.8284C32.4214 39.0783 32 38.0609 32 37H29V45H45V41H36Z" fill="#CC5144"/>
<path d="M20 41C18.9391 41 17.9217 40.5786 17.1716 39.8284C16.4214 39.0783 16 38.0609 16 37H13V45H29V41H20Z" fill="#CC5144"/>
<path d="M42 33C40.9391 33 39.9217 32.5786 39.1716 31.8284C38.4214 31.0783 38 30.0609 38 29H35V37H51V33H42Z" fill="#CC5144"/>
<path d="M26 33C24.9391 33 23.9217 32.5786 23.1716 31.8284C22.4214 31.0783 22 30.0609 22 29H19V37H35V33H26Z" fill="#CC5144"/>
<path d="M10 33C8.93913 33 7.92172 32.5786 7.17157 31.8284C6.42143 31.0783 6 30.0609 6 29H3V37H19V33H10Z" fill="#CC5144"/>
<path d="M10 41C8.93913 41 7.92172 40.5786 7.17157 39.8284C6.42143 39.0783 6 38.0609 6 37H3V45H13V41H10Z" fill="#CC5144"/>
<path d="M58 49C56.9391 49 55.9217 48.5786 55.1716 47.8284C54.4214 47.0783 54 46.0609 54 45H51V53H61V49H58Z" fill="#CC5144"/>
<path d="M7 54V45C7 44.4696 7.21071 43.9609 7.58579 43.5858C7.96086 43.2107 8.46957 43 9 43C9.53043 43 10.0391 43.2107 10.4142 43.5858C10.7893 43.9609 11 44.4696 11 45V48C11 48.7956 11.3161 49.5587 11.8787 50.1213C12.4413 50.6839 13.2044 51 14 51C14.7956 51 15.5587 50.6839 16.1213 50.1213C16.6839 49.5587 17 48.7956 17 48V42C17 41.2044 17.3161 40.4413 17.8787 39.8787C18.4413 39.3161 19.2044 39 20 39C20.7956 39 21.5587 39.3161 22.1213 39.8787C22.6839 40.4413 23 41.2044 23 42V44C23 44.7956 23.3161 45.5587 23.8787 46.1213C24.4413 46.6839 25.2044 47 26 47C26.7956 47 27.5587 46.6839 28.1213 46.1213C28.6839 45.5587 29 44.7956 29 44V31C28.998 30.2597 28.7202 29.5467 28.221 29H3V56.816C3.32024 56.9345 3.65855 56.9968 4 57C4.79565 57 5.55871 56.6839 6.12132 56.1213C6.68393 55.5587 7 54.7956 7 54V54Z" fill="#CC5144"/>
<path d="M49 38V41C49 41.5304 49.2107 42.0391 49.5858 42.4142C49.9609 42.7893 50.4696 43 51 43C51.5304 43 52.0391 42.7893 52.4142 42.4142C52.7893 42.0391 53 41.5304 53 41V40C53 40.7956 53.3161 41.5587 53.8787 42.1213C54.4413 42.6839 55.2044 43 56 43C56.7956 43 57.5587 42.6839 58.1213 42.1213C58.6839 41.5587 59 40.7956 59 40V39C58.998 38.2597 58.7202 37.5467 58.221 37H51V36C50.4696 36 49.9609 36.2107 49.5858 36.5858C49.2107 36.9609 49 37.4696 49 38Z" fill="#CC5144"/>
<path d="M3 29V52C3 52.7956 3.31607 53.5587 3.87868 54.1213C4.44129 54.6839 5.20435 55 6 55C6.79565 55 7.55871 54.6839 8.12132 54.1213C8.68393 53.5587 9 52.7956 9 52V43C9 42.4696 9.21071 41.9609 9.58579 41.5858C9.96086 41.2107 10.4696 41 11 41C11.5304 41 12.0391 41.2107 12.4142 41.5858C12.7893 41.9609 13 42.4696 13 43V46C13 46.7956 13.3161 47.5587 13.8787 48.1213C14.4413 48.6839 15.2044 49 16 49C16.7956 49 17.5587 48.6839 18.1213 48.1213C18.6839 47.5587 19 46.7956 19 46V40C19 39.2044 19.3161 38.4413 19.8787 37.8787C20.4413 37.3161 21.2044 37 22 37C22.7956 37 23.5587 37.3161 24.1213 37.8787C24.6839 38.4413 25 39.2044 25 40V42C25 42.7956 25.3161 43.5587 25.8787 44.1213C26.4413 44.6839 27.2044 45 28 45V45C28.7956 45 29.5587 44.6839 30.1213 44.1213C30.6839 43.5587 31 42.7956 31 42V29C31 28.2044 30.6839 27.4413 30.1213 26.8787C29.5587 26.3161 28.7956 26 28 26H6C5.20435 26 4.44129 26.3161 3.87868 26.8787C3.31607 27.4413 3 28.2044 3 29V29Z" fill="#93999A"/>
<path d="M19.515 26L18.1 28.839C17.8392 29.3599 17.7491 29.9496 17.8423 30.5247C17.9355 31.0997 18.2073 31.6307 18.6193 32.0426C19.0312 32.4544 19.5624 32.7262 20.1374 32.8192C20.7124 32.9122 21.3022 32.8219 21.823 32.561L28.866 29.04C29.2862 28.8297 29.619 28.4781 29.8059 28.0469C29.9927 27.6157 30.0218 27.1325 29.888 26.682C29.3569 26.2425 28.6894 26.0014 28 26H19.515Z" fill="#656B76"/>
<path d="M6 49V26C5.20435 26 4.44129 26.3161 3.87868 26.8787C3.31607 27.4413 3 28.2044 3 29V52C3 52.7956 3.31607 53.5587 3.87868 54.1213C4.44129 54.6839 5.20435 55 6 55C6.79565 55 7.55871 54.6839 8.12132 54.1213C8.68393 53.5587 9 52.7956 9 52C8.20435 52 7.44129 51.6839 6.87868 51.1213C6.31607 50.5587 6 49.7956 6 49Z" fill="#656B76"/>
<path d="M18 45C17.4696 45 16.9609 44.7893 16.5858 44.4142C16.2107 44.0391 16 43.5304 16 43C16 42.4696 15.7893 41.9609 15.4142 41.5858C15.0391 41.2107 14.5304 41 14 41H11C11.5304 41 12.0391 41.2107 12.4142 41.5858C12.7893 41.9609 13 42.4696 13 43V46C13 46.7956 13.3161 47.5587 13.8787 48.1213C14.4413 48.6839 15.2044 49 16 49C16.7956 49 17.5587 48.6839 18.1213 48.1213C18.6839 47.5587 19 46.7956 19 46V45H18Z" fill="#656B76"/>
<path d="M29 41C28.4696 41 27.9609 40.7893 27.5858 40.4142C27.2107 40.0391 27 39.5304 27 39C27 38.4696 26.7893 37.9609 26.4142 37.5858C26.0391 37.2107 25.5304 37 25 37H22C22.7956 37 23.5587 37.3161 24.1213 37.8787C24.6839 38.4413 25 39.2044 25 40V42C25 42.7956 25.3161 43.5587 25.8787 44.1213C26.4413 44.6839 27.2044 45 28 45C28.7956 45 29.5587 44.6839 30.1213 44.1213C30.6839 43.5587 31 42.7956 31 42V41H29Z" fill="#656B76"/>
<path d="M58 34H53C52.4696 34 51.9609 34.2107 51.5858 34.5858C51.2107 34.9609 51 35.4696 51 36V39C51 39.5304 51.2107 40.0391 51.5858 40.4142C51.9609 40.7893 52.4696 41 53 41C53.5304 41 54.0391 40.7893 54.4142 40.4142C54.7893 40.0391 55 39.5304 55 39V38C55 38.7956 55.3161 39.5587 55.8787 40.1213C56.4413 40.6839 57.2044 41 58 41C58.7956 41 59.5587 40.6839 60.1213 40.1213C60.6839 39.5587 61 38.7956 61 38V37C61 36.2044 60.6839 35.4413 60.1213 34.8787C59.5587 34.3161 58.7956 34 58 34Z" fill="#D0D8DA"/>
<path d="M57 35V34H53C52.4696 34 51.9609 34.2107 51.5858 34.5858C51.2107 34.9609 51 35.4696 51 36V39C51 39.5304 51.2107 40.0391 51.5858 40.4142C51.9609 40.7893 52.4696 41 53 41C53.5304 41 54.0391 40.7893 54.4142 40.4142C54.7893 40.0391 55 39.5304 55 39V38C55 38.7956 55.3161 39.5587 55.8787 40.1213C56.4413 40.6839 57.2044 41 58 41C58.7956 41 59.5587 40.6839 60.1213 40.1213C60.6839 39.5587 61 38.7956 61 38H60C59.2044 38 58.4413 37.6839 57.8787 37.1213C57.3161 36.5587 57 35.7956 57 35Z" fill="#93999A"/>
<path d="M19.615 29.042C19.204 28.6303 18.9326 28.1 18.8393 27.5258C18.746 26.9516 18.8355 26.3626 19.095 25.842L22.617 18.8C22.7588 18.5171 22.9658 18.2719 23.2208 18.0845C23.4759 17.8971 23.7717 17.773 24.0841 17.7222C24.3965 17.6715 24.7164 17.6955 25.0177 17.7925C25.3189 17.8895 25.5929 18.0565 25.817 18.28L30.378 22.841C30.6014 23.0651 30.7685 23.339 30.8655 23.6403C30.9624 23.9415 30.9865 24.2615 30.9358 24.5739C30.885 24.8863 30.7609 25.1821 30.5735 25.4372C30.3861 25.6922 30.1409 25.8992 29.858 26.041L22.815 29.562C22.2945 29.8218 21.7054 29.9114 21.1311 29.8181C20.5569 29.7248 20.0265 29.4533 19.615 29.042V29.042Z" fill="#D0D8DA"/>
<path d="M39.4136 6.41427C40.1947 5.63322 40.1947 4.36689 39.4136 3.58584C38.6326 2.8048 37.3662 2.8048 36.5852 3.58584L29.5141 10.6569C28.7331 11.438 28.7331 12.7043 29.5141 13.4853C30.2952 14.2664 31.5615 14.2664 32.3425 13.4853L39.4136 6.41427Z" fill="#F9E109"/>
<path d="M29.677 22.132L22.818 25.561C22.2976 25.821 21.7086 25.9107 21.1343 25.8176C20.56 25.7244 20.0296 25.4531 19.618 25.042C19.59 25.013 19.568 24.981 19.542 24.952L19.098 25.839C18.8372 26.3599 18.7471 26.9496 18.8403 27.5246C18.9335 28.0997 19.2053 28.6307 19.6173 29.0426C20.0292 29.4544 20.5604 29.7261 21.1354 29.8192C21.7105 29.9122 22.3002 29.8219 22.821 29.561L29.864 26.04C30.1469 25.8982 30.3921 25.6912 30.5795 25.4362C30.7669 25.1811 30.891 24.8853 30.9418 24.5729C30.9925 24.2605 30.9685 23.9405 30.8715 23.6393C30.7745 23.338 30.6074 23.0641 30.384 22.84L29.677 22.132Z" fill="#93999A"/>
<path d="M39.32 3.509L32.343 10.485C31.9831 10.8442 31.4995 11.0522 30.9913 11.0665C30.483 11.0808 29.9885 10.9003 29.609 10.562L29.515 10.662C29.1507 11.0392 28.9491 11.5444 28.9537 12.0688C28.9582 12.5932 29.1685 13.0948 29.5394 13.4656C29.9102 13.8365 30.4118 14.0468 30.9362 14.0514C31.4606 14.0559 31.9658 13.8543 32.343 13.49L39.414 6.419C39.7889 6.04395 39.9996 5.53533 39.9996 5.005C39.9996 4.47467 39.7889 3.96606 39.414 3.591C39.385 3.556 39.35 3.536 39.32 3.509Z" fill="#FCBC04"/>
<path d="M58 33H53C52.6586 33.0033 52.3203 33.0655 52 33.184V29C52 28.7348 51.8946 28.4804 51.7071 28.2929C51.5196 28.1053 51.2652 28 51 28H44C43.7348 28 43.4804 28.1053 43.2929 28.2929C43.1054 28.4804 43 28.7348 43 29C43 29.2652 43.1054 29.5196 43.2929 29.7071C43.4804 29.8946 43.7348 30 44 30H50V36H36V30H40C40.2652 30 40.5196 29.8946 40.7071 29.7071C40.8946 29.5196 41 29.2652 41 29C41 28.7348 40.8946 28.4804 40.7071 28.2929C40.5196 28.1053 40.2652 28 40 28H31.867C31.7167 27.4114 31.4319 26.8658 31.035 26.406C31.3253 26.1322 31.5575 25.8029 31.7179 25.4375C31.8782 25.0721 31.9634 24.6782 31.9683 24.2792C31.9733 23.8802 31.8979 23.4844 31.7466 23.1151C31.5954 22.7459 31.3714 22.4109 31.088 22.13L29.515 20.556C30.0774 19.9934 30.3934 19.2305 30.3934 18.435C30.3934 17.6395 30.0774 16.8766 29.515 16.314C29.422 16.2211 29.3483 16.1108 29.2979 15.9894C29.2476 15.868 29.2217 15.7379 29.2217 15.6065C29.2217 15.4751 29.2476 15.3449 29.2979 15.2235C29.3483 15.1021 29.422 14.9919 29.515 14.899L29.643 14.771C30.2001 15.0427 30.8285 15.133 31.4396 15.0292C32.0507 14.9253 32.6139 14.6325 33.05 14.192L35.207 12.036C35.3892 11.8474 35.49 11.5948 35.4877 11.3326C35.4854 11.0704 35.3802 10.8196 35.1948 10.6342C35.0094 10.4488 34.7586 10.3436 34.4964 10.3413C34.2342 10.339 33.9816 10.4398 33.793 10.622L31.636 12.778C31.4455 12.9598 31.1923 13.0612 30.929 13.0612C30.6657 13.0612 30.4125 12.9598 30.222 12.778C30.0345 12.5905 29.9292 12.3362 29.9292 12.071C29.9292 11.8058 30.0345 11.5515 30.222 11.364L37.293 4.29299C37.3852 4.19748 37.4956 4.12129 37.6176 4.06889C37.7396 4.01648 37.8708 3.98889 38.0036 3.98774C38.1364 3.98658 38.2681 4.01188 38.391 4.06217C38.5138 4.11245 38.6255 4.1867 38.7194 4.28059C38.8133 4.37448 38.8875 4.48614 38.9378 4.60903C38.9881 4.73193 39.0134 4.86361 39.0122 4.99639C39.0111 5.12917 38.9835 5.26039 38.9311 5.38239C38.8787 5.5044 38.8025 5.61474 38.707 5.70699L36.621 7.79299C36.4388 7.98159 36.338 8.23419 36.3403 8.49639C36.3426 8.75858 36.4478 9.0094 36.6332 9.19481C36.8186 9.38021 37.0694 9.48538 37.3316 9.48766C37.5938 9.48994 37.8464 9.38914 38.035 9.20699L40.121 7.12199C40.4033 6.84428 40.6279 6.51342 40.7817 6.1485C40.9355 5.78357 41.0156 5.3918 41.0173 4.99578C41.0189 4.59977 40.9421 4.20734 40.7914 3.84114C40.6406 3.47494 40.4188 3.14221 40.1388 2.86215C39.8589 2.58208 39.5262 2.36023 39.16 2.20938C38.7938 2.05853 38.4014 1.98167 38.0054 1.98324C37.6094 1.9848 37.2176 2.06476 36.8526 2.2185C36.4877 2.37224 36.1568 2.59672 35.879 2.87899L28.808 9.94999C28.3675 10.3861 28.0747 10.9493 27.9708 11.5604C27.867 12.1715 27.9573 12.7998 28.229 13.357L28.101 13.485C27.8222 13.7636 27.6011 14.0944 27.4502 14.4585C27.2993 14.8226 27.2216 15.2129 27.2216 15.607C27.2216 16.0011 27.2993 16.3914 27.4502 16.7555C27.6011 17.1196 27.8222 17.4504 28.101 17.729C28.2882 17.9165 28.3933 18.1706 28.3933 18.4355C28.3933 18.7004 28.2882 18.9545 28.101 19.142L26.527 17.568C26.1908 17.2328 25.7799 16.9822 25.328 16.8368C24.8762 16.6913 24.3962 16.6552 23.9277 16.7313C23.4591 16.8075 23.0153 16.9937 22.6327 17.2748C22.2502 17.5558 21.9397 17.9236 21.727 18.348L18.4 25H6C4.93913 25 3.92172 25.4214 3.17157 26.1716C2.42143 26.9217 2 27.9391 2 29V39C2 39.2652 2.10536 39.5196 2.29289 39.7071C2.48043 39.8946 2.73478 40 3 40C3.26522 40 3.51957 39.8946 3.70711 39.7071C3.89464 39.5196 4 39.2652 4 39V29C4 28.4696 4.21071 27.9608 4.58579 27.5858C4.96086 27.2107 5.46957 27 6 27H17.809C17.7972 27.5087 17.8886 28.0146 18.0777 28.4871C18.2667 28.9595 18.5495 29.3888 18.909 29.749V29.749C19.4692 30.3094 20.1916 30.6793 20.9738 30.8062C21.756 30.9331 22.5583 30.8106 23.267 30.456L29.249 27.465C29.4819 27.6475 29.6705 27.8805 29.8006 28.1463C29.9307 28.4122 29.9988 28.704 30 29V42C30 42.5304 29.7893 43.0391 29.4142 43.4142C29.0391 43.7893 28.5304 44 28 44C27.4696 44 26.9609 43.7893 26.5858 43.4142C26.2107 43.0391 26 42.5304 26 42V40C26 38.9391 25.5786 37.9217 24.8284 37.1716C24.0783 36.4214 23.0609 36 22 36C20.9391 36 19.9217 36.4214 19.1716 37.1716C18.4214 37.9217 18 38.9391 18 40V46C18 46.5304 17.7893 47.0391 17.4142 47.4142C17.0391 47.7893 16.5304 48 16 48C15.4696 48 14.9609 47.7893 14.5858 47.4142C14.2107 47.0391 14 46.5304 14 46V43C14 42.2043 13.6839 41.4413 13.1213 40.8787C12.5587 40.3161 11.7956 40 11 40C10.2044 40 9.44129 40.3161 8.87868 40.8787C8.31607 41.4413 8 42.2043 8 43V52C8 52.5304 7.78929 53.0391 7.41421 53.4142C7.03914 53.7893 6.53043 54 6 54C5.46957 54 4.96086 53.7893 4.58579 53.4142C4.21071 53.0391 4 52.5304 4 52V43C4 42.7348 3.89464 42.4804 3.70711 42.2929C3.51957 42.1053 3.26522 42 3 42C2.73478 42 2.48043 42.1053 2.29289 42.2929C2.10536 42.4804 2 42.7348 2 43V61C2 61.2652 2.10536 61.5196 2.29289 61.7071C2.48043 61.8946 2.73478 62 3 62H51C51.2652 62 51.5196 61.8946 51.7071 61.7071C51.8946 61.5196 52 61.2652 52 61C52 60.7348 51.8946 60.4804 51.7071 60.2929C51.5196 60.1053 51.2652 60 51 60H46V54H60V60H55C54.7348 60 54.4804 60.1053 54.2929 60.2929C54.1054 60.4804 54 60.7348 54 61C54 61.2652 54.1054 61.5196 54.2929 61.7071C54.4804 61.8946 54.7348 62 55 62H61C61.2652 62 61.5196 61.8946 61.7071 61.7071C61.8946 61.5196 62 61.2652 62 61V49C62 48.7348 61.8946 48.4804 61.7071 48.2929C61.5196 48.1053 61.2652 48 61 48C60.7348 48 60.4804 48.1053 60.2929 48.2929C60.1054 48.4804 60 48.7348 60 49V52H36V46H50V49C50 49.2652 50.1054 49.5196 50.2929 49.7071C50.4804 49.8946 50.7348 50 51 50C51.2652 50 51.5196 49.8946 51.7071 49.7071C51.8946 49.5196 52 49.2652 52 49V46H61C61.2652 46 61.5196 45.8946 61.7071 45.7071C61.8946 45.5196 62 45.2652 62 45V37C62 35.9391 61.5786 34.9217 60.8284 34.1716C60.0783 33.4214 59.0609 33 58 33ZM53 35H58C58.5304 35 59.0391 35.2107 59.4142 35.5858C59.7893 35.9608 60 36.4696 60 37V38C60 38.5304 59.7893 39.0391 59.4142 39.4142C59.0391 39.7893 58.5304 40 58 40C57.4696 40 56.9609 39.7893 56.5858 39.4142C56.2107 39.0391 56 38.5304 56 38C56 37.7348 55.8946 37.4804 55.7071 37.2929C55.5196 37.1053 55.2652 37 55 37C54.7348 37 54.4804 37.1053 54.2929 37.2929C54.1054 37.4804 54 37.7348 54 38V39C54 39.2652 53.8946 39.5196 53.7071 39.7071C53.5196 39.8946 53.2652 40 53 40C52.7348 40 52.4804 39.8946 52.2929 39.7071C52.1054 39.5196 52 39.2652 52 39V36C52 35.7348 52.1054 35.4804 52.2929 35.2929C52.4804 35.1053 52.7348 35 53 35ZM32 36V30H34V36H32ZM22.371 28.667C22.0378 28.834 21.6605 28.8917 21.2926 28.8319C20.9248 28.7722 20.5851 28.5979 20.322 28.334V28.334C20.0582 28.071 19.8841 27.7314 19.8245 27.3637C19.7649 26.996 19.8228 26.6189 19.99 26.286L23.512 19.243C23.5819 19.1008 23.685 18.9775 23.8126 18.8835C23.9402 18.7895 24.0885 18.7276 24.245 18.703C24.2995 18.6939 24.3547 18.6892 24.41 18.689C24.5403 18.6892 24.6693 18.7154 24.7895 18.7658C24.9096 18.8163 25.0186 18.8901 25.11 18.983L26.683 20.556L24.562 22.678C24.4665 22.7702 24.3903 22.8806 24.3379 23.0026C24.2855 23.1246 24.2579 23.2558 24.2568 23.3886C24.2556 23.5214 24.2809 23.653 24.3312 23.7759C24.3815 23.8988 24.4557 24.0105 24.5496 24.1044C24.6435 24.1983 24.7551 24.2725 24.878 24.3228C25.0009 24.3731 25.1326 24.3984 25.2654 24.3972C25.3982 24.3961 25.5294 24.3685 25.6514 24.3161C25.7734 24.2637 25.8838 24.1875 25.976 24.092L28.1 21.971L29.673 23.544C29.7847 23.656 29.8683 23.793 29.9167 23.9436C29.9652 24.0943 29.9773 24.2542 29.9519 24.4104C29.9265 24.5666 29.8644 24.7146 29.7707 24.8421C29.6771 24.9696 29.5545 25.0731 29.413 25.144L22.371 28.667ZM32 42V38H44V44H31.444C31.8039 43.3946 31.9959 42.7042 32 42V42ZM22 38C22.5304 38 23.0391 38.2107 23.4142 38.5858C23.7893 38.9608 24 39.4696 24 40V42C24.0041 42.7042 24.1961 43.3946 24.556 44H20V40C20 39.4696 20.2107 38.9608 20.5858 38.5858C20.9609 38.2107 21.4696 38 22 38V38ZM16 50C16.7043 49.9958 17.3947 49.8039 18 49.444V52H10V46H12C12 47.0609 12.4214 48.0783 13.1716 48.8284C13.9217 49.5786 14.9391 50 16 50ZM11 42C11.2652 42 11.5196 42.1053 11.7071 42.2929C11.8946 42.4804 12 42.7348 12 43V44H10V43C10 42.7348 10.1054 42.4804 10.2929 42.2929C10.4804 42.1053 10.7348 42 11 42V42ZM4 55.444C4.45063 55.7129 4.95049 55.889 5.47018 55.9619C5.98986 56.0348 6.51888 56.0031 7.02611 55.8685C7.53335 55.734 8.00855 55.4994 8.42379 55.1785C8.83902 54.8576 9.18589 54.4569 9.444 54H12V60H4V55.444ZM44 60H14V54H28V57C28 57.2652 28.1054 57.5196 28.2929 57.7071C28.4804 57.8946 28.7348 58 29 58C29.2652 58 29.5196 57.8946 29.7071 57.7071C29.8946 57.5196 30 57.2652 30 57V54H44V60ZM20 52V46H34V52H20ZM46 44V38H50V39C50.0005 39.6141 50.1894 40.2133 50.5413 40.7166C50.8932 41.2199 51.3911 41.6031 51.9677 41.8144C52.5443 42.0257 53.1719 42.055 53.7656 41.8983C54.3594 41.7415 54.8908 41.4064 55.288 40.938C55.9126 41.5214 56.7098 41.8861 57.5596 41.9774C58.4093 42.0686 59.2658 41.8814 60 41.444V44H46Z" fill="#323232"/>
</svg>
