
<svg version="1.0" xmlns="http://www.w3.org/2000/svg" width="700.000000pt" height="700.000000pt" viewBox="0 0 700.000000 700.000000" preserveAspectRatio="xMidYMid meet">
<g transform="translate(0.000000,700.000000) scale(0.100000,-0.100000)" fill="#000000" stroke="none">
<path d="M3278 6995 c-2 -1 -45 -6 -96 -9 -51 -4 -101 -9 -110 -11 -9 -3 -42 -7 -73 -10 -31 -3 -67 -8 -80 -10 -13 -3 -51 -8 -84 -12 -33 -4 -71 -9 -85 -12 -14 -3 -36 -7 -50 -9 -14 -2 -63 -11 -110 -21 -47 -10 -96 -19 -110 -21 -14 -2 -53 -11 -88 -20 -35 -9 -73 -18 -85 -20 -12 -2 -51 -13 -87 -25 -36 -11 -72 -22 -80 -24 -25 -5 -210 -68 -285 -96 -39 -15 -77 -28 -85 -30 -8 -2 -42 -16 -75 -30 -33 -15 -69 -30 -80 -35 -11 -4 -49 -21 -85 -37 -36 -17 -67 -30 -70 -30 -3 0 -48 -24 -100 -53 -52 -29 -97 -52 -100 -52 -3 0 -43 -26 -90 -57 -47 -32 -87 -58 -90 -58 -3 0 -43 -29 -90 -65 -47 -36 -87 -65 -90 -65 -3 0 -34 -26 -70 -58 -36 -31 -67 -57 -70 -57 -3 0 -33 -27 -67 -60 -35 -33 -66 -60 -70 -60 -4 0 -30 -24 -58 -53 -27 -29 -52 -52 -55 -52 -3 0 -27 -24 -55 -53 -27 -29 -52 -52 -55 -52 -3 0 -32 -33 -65 -73 -33 -39 -62 -72 -65 -72 -3 0 -29 -32 -57 -70 -29 -39 -56 -70 -60 -70 -5 0 -23 -21 -40 -47 -18 -27 -36 -48 -40 -48 -5 0 -23 -21 -40 -47 -18 -27 -36 -48 -40 -48 -5 0 -23 -21 -40 -47 -18 -27 -36 -48 -40 -48 -5 0 -23 -21 -40 -47 -18 -27 -36 -48 -40 -48 -5 0 -23 -24 -40 -53 -18 -29 -36 -52 -40 -52 -5 0 -21 -21 -37 -47 -15 -27 -31 -48 -35 -48 -4 0 -21 -21 -37 -47 -15 -27 -31 -48 -35 -48 -4 0 -19 -19 -33 -42 -14 -24 -29 -43 -33 -43 -4 0 -19 -19 -33 -42 -14 -24 -29 -43 -33 -43 -4 0 -17 -17 -28 -37 -12 -21 -24 -38 -28 -38 -4 0 -17 -17 -28 -37 -12 -21 -24 -38 -28 -38 -4 0 -15 -15 -24 -32 -10 -18 -21 -33 -25 -33 -4 0 -15 -15 -24 -32 -10 -18 -21 -33 -25 -33 -4 0 -13 -12 -20 -27 -7 -16 -16 -28 -20 -28 -4 0 -13 -12 -20 -27 -7 -16 -16 -28 -20 -28 -4 0 -11 -8 -15 -17 -4 -10 -13 -18 -20 -18 -7 0 -15 -9 -18 -20 -3 -11 -12 -20 -20 -20 -8 0 -17 -9 -20 -20 -3 -11 -12 -20 -20 -20 -8 0 -17 -9 -20 -20 -3 -11 -12 -20 -20 -20 -8 0 -17 -9 -20 -20 -3 -11 -12 -20 -20 -20 -8 0 -17 -9 -20 -20 -3 -11 -12 -20 -20 -20 -8 0 -17 -9 -20 -20 -3 -11 -12 -20 -20 -20 -8 0 -17 -9 -20 -20 -3 -11 -12 -20 -20 -20 -8 0 -17 -9 -20 -20 -3 -11 -12 -20 -20 -20 -8 0 -17 -9 -20 -20 -3 -11 -12 -20 -20 -20 -8 0 -17 -9 -20 -20 -3 -11 -12 -20 -20 -20 -8 0 -17 -9 -20 -20 -3 -11 -12 -20 -20 -20 -8 0 -17 -9 -20 -20 -3 -11 -12 -20 -20 -20 -8 0 -17 -9 -20 -20 -3 -11 -12 -20 -20 -20 -8 0 -17 -9 -20 -20 -3 -11 -12 -20 -20 -20 -8 0 -17 -9 -20 -20 -3 -11 -12 -20 -20 -20 -8 0 -17 -9 -20 -20 -3 -11 -12 -20 -20 -20 -8 0 -17 -9 -20 -20 -3 -11 -12 -20 -20 -20 -8 0 -17 -9 -20 -20 -3 -11 -12 -20 -20 -20 -8 0 -17 -9 -20 -20 -3 -11 -12 -20 -20 -20 -8 0 -17 -9 -20 -20 -3 -11 -12 -20 -20 -20 -8 0 -17 -9 -20 -20 -3 -11 -12 -20 -20 -20 -8 0 -17 -9 -20 -20 -3 -11 -12 -20 -20 -20 -8 0 -17 -9 -20 -20 -3 -11 -12 -20 -20 -20 -8 0 -17 -9 -20 -20 -3 -11 -12 -20 -20 -20 -8 0 -17 -9 -20 -20 -3 -11 -12 -20 -20 -20 -8 0 -17 -9 -20 -20 -3 -11 -12 -20 -20 -20 -8 0 -17 -9 -20 -20 -3 -11 -12 -20 -20 -20 -8 0 -17 -9 -20 -20 -3 -11 -12 -20 -20 -20 -8 0 -17 -9 -20 -20 -3 -11 -12 -20 -20 -20 -8 0 -17 -9 -20 -20 -3 -11 -12 -20 -20 -20 -8 0 -17 -9 -20 -20 -3 -11 -12 -20 -20 -20 -8 0 -17 -9 -20 -20 -3 -11 -12 -20 -20 -20 -8 0 -17 -9 -20 -20 -3 -11 -12 -20 -20 -20 -8 0 -17 -9 -20 -20 -3 -11 -12 -20 -20 -20 -8 0 -17 -9 -20 -20 -3 -11 -12 -20 -20 -20 -8 0 -17 -9 -20 -20 -3 -11 -12 -20 -20 -20 -8 0 -17 -9 -20 -20 -3 -11 -12 -20 -20 -20 -8 0 -17 -9 -20 -20 -3 -11 -12 -20 -20 -20 -8 0 -17 -9 -20 -20 -3 -11 -12 -20 -20 -20 -8 0 -17 -9 -20 -20 -3 -11 -12 -20 -20 -20 -8 0 -17 -9 -20 -20 -3 -11 -12 -20 -20 -20 -8 0 -17 -9 -20 -20 -3 -11 -12 -20 -20 -20 -8 0 -17 -9 -20 -20 -3 -11 -12 -20 -20 -20 -8 0 -17 -9 -20 -20 -3 -11 -12 -20 -20 -20 -8 0 -17 -9 -20 -20 -3 -11 -12 -20 -20 -20 -8 0 -17 -9 -20 -20 -3 -11 -12 -20 -20 -20 -8 0 -17 -9 -20 -20 -3 -11 -12 -20 -20 -20 -8 0 -17 -9 -20 -20 -3 -11 -12 -20 -20 -20 -8 0 -17 -9 -20 -20 -3 -11 -12 -20 -20 -20 -8 0 -17 -9 -20 -20 -3 -11 -12 -20 -20 -20 -8 0 -17 -9 -20 -20 -3 -11 -12 -20 -20 -20 -8 0 -17 -9 -20 -20 -3 -11 -12 -20 -20 -20 -8 0 -17 -9 -20 -20 -3 -11 -12 -20 -20 -20 -8 0 -17 -9 -20 -20 -3 -11 -12 -20 -20 -20 -8 0 -17 -9 -20 -20 -3 -11 -12 -20 -20 -20 -8 0 -17 -9 -20 -20 -3 -11 -12 -20 -20 -20 -8 0 -17 -9 -20 -20 -3 -11 -12 -20 -20 -20 -8 0 -17 -9 -20 -20 -3 -11 -12 -20 -20 -20 -8 0 -17 -9 -20 -20 -3 -11 -12 -20 -20 -20 -8 0 -17 -9 -20 -20 -3 -11 -12 -20 -20 -20 -8 0 -17 -9 -20 -20 -3 -11 -12 -20 -20 -20 -8 0 -17 -9 -20 -20 -3 -11 -12 -20 -20 -20 -8 0 -17 -9 -20 -20 -3 -11 -12 -20 -20 -20 -8 0 -17 -9 -20 -20 -3 -11 -12 -20 -20 -20 -8 0 -17 -9 -20 -20 -3 -11 -12 -20 -20 -20 -8 0 -17 -9 -20 -20 -3 -11 -12 -20 -20 -20 -8 0 -17 -9 -20 -20 -3 -11 -12 -20 -20 -20 -8 0 -17 -9 -20 -20 -3 -11 -12 -20 -20 -20 -8 0 -17 -9 -20 -20 -3 -11 -12 -20 -20 -20 -8 0 -17 -9 -20 -20 -3 -11 -12 -20 -20 -20 -8 0 -17 -9 -20 -20 -3 -11 -12 -20 -20 -20 -8 0 -17 -9 -20 -20 -3 -11 -12 -20 -20 -20 -8 0 -17 -9 -20 -20 z"/>
</g>
</svg>
