<?xml version="1.0" encoding="UTF-8" standalone="no"?> <svg width="512" height="512" viewBox="0 0 512 512" fill="none" xmlns="http://www.w3.org/2000/svg">
<path d="M392 16L369.284 53.8601C352.449 81.9187 337.602 111.123 324.852 141.259L248 323.33V336L280 352H344.404L372.906 321.7C437.235 253.083 477.613 165.48 488 72.0001V72L392 16Z" fill="#F9D7CF"/>
<path d="M481.487 112.744L368.02 56.0098C351.705 83.4097 337.283 111.892 324.852 141.259L248 323.33V336L280 352H344.404L372.906 321.7C427.607 263.344 465.175 191.047 481.487 112.744V112.744Z" fill="#F4C36E"/>
<path d="M267.952 446.672L261.975 485.923L284.116 495.183L307.932 463.269L267.952 446.672Z" fill="#F4C36E"/>
<path d="M202.93 461.231L225.072 470.491L248.201 439.497L208.774 422.855L202.93 461.231Z" fill="#F4C36E"/>
<path d="M143.885 436.537L166.027 445.797L188.314 415.931L149.463 399.91L143.885 436.537Z" fill="#F4C36E"/>
<path d="M84.8398 411.844L106.981 421.104L128.651 392.066L90.4048 375.303L84.8398 411.844Z" fill="#F4C36E"/>
<path d="M25.7949 387.153L47.9369 396.411L70.0659 366.758L31.2909 351.062L25.7949 387.153Z" fill="#F4C36E"/>
<path d="M256 304V307.669C256 313.35 258.015 318.847 261.688 323.182C265.36 327.517 270.451 330.408 276.054 331.342L352 344L360 352L345.788 430.165C344.624 436.569 341.534 442.466 336.932 447.068L327.153 456.847C322.67 461.33 316.956 464.38 310.736 465.611C304.516 466.841 298.071 466.196 292.218 463.758L24 352V350.172C24 341.48 26.8315 333.024 32.066 326.084C37.3006 319.145 44.6532 314.099 53.0112 311.711L53.0668 311.695C70.9351 306.59 89.4277 304 108.011 304H256Z" fill="#4EB586"/>
<path d="M386.354 368.355L381.648 383.646L459.649 407.647L464.354 392.355L386.354 368.355Z" fill="#DFDFDF"/>
<path d="M226.993 402.381L287.677 425.721C289.75 426.518 291.966 426.875 294.184 426.769C296.403 426.663 298.575 426.096 300.562 425.105C302.549 424.114 304.309 422.72 305.728 421.011C307.147 419.303 308.195 417.318 308.805 415.183L314.692 394.579C315.339 392.316 315.478 389.937 315.1 387.614C314.722 385.29 313.835 383.079 312.504 381.137C311.173 379.196 309.43 377.572 307.4 376.381C305.369 375.19 303.1 374.463 300.756 374.249L238.127 368.556C234.183 368.197 230.247 369.314 227.079 371.69L223.136 374.647C220.85 376.362 219.064 378.658 217.966 381.297C216.867 383.935 216.495 386.82 216.889 389.651C217.282 392.482 218.427 395.155 220.204 397.394C221.981 399.633 224.325 401.355 226.993 402.381Z" fill="#F4C36E"/>
<path d="M402.352 407.737L397.646 423.029L477.646 447.645L482.352 432.353L402.352 407.737Z" fill="#DFDFDF"/>
<path d="M410.352 444.661L405.646 459.953L493.646 487.03L498.352 471.738L410.352 444.661Z" fill="#DFDFDF"/>
<path d="M160 296C235.111 296 296 235.111 296 160C296 84.8893 235.111 24 160 24C84.8893 24 24 84.8893 24 160C24 235.111 84.8893 296 160 296Z" fill="#DFDFDF"/>
<path d="M33.71 293.817C25.5819 286.141 18.1646 277.745 11.5488 268.732L24.4492 259.268C30.4931 267.501 37.2691 275.171 44.6943 282.184L33.71 293.817Z" fill="#DFDFDF"/>
<path d="M313.349 91.2764C311.004 86.0565 308.394 80.9597 305.529 76.0059L319.379 67.9941C322.517 73.4213 325.376 79.005 327.944 84.7236L313.349 91.2764Z" fill="#DFDFDF"/>
<path d="M297.459 63.3872C286.926 48.421 274.027 35.2696 259.268 24.4492L268.732 11.5488C284.89 23.394 299.011 37.7912 310.541 54.1753L297.459 63.3872Z" fill="#DFDFDF"/>
<path d="M254.667 168L287.503 207.404C298.832 176.817 298.832 143.183 287.503 112.596L254.667 152H210.599L183.875 112.414L197.736 69.7123L242.424 51.8258C218.758 33.7361 189.788 23.9558 160 24.0001C158.953 24.0001 157.909 24.0163 156.868 24.0398L182.519 64.7685L168.812 106.995L121.455 122.109L85.4133 95.9106L82.2502 48.4129C57.1778 65.8956 38.7119 91.3009 29.8208 120.545L76.0117 108.858L112 135.017V185L76.4575 210.719L29.6484 198.876C38.5178 228.524 57.2157 254.269 82.6653 271.875L85.877 223.652L121.383 197.959L169.008 213.619L182.751 255.861L157.492 295.968C158.327 295.984 159.161 296 160 296C189.587 296.045 218.375 286.397 241.959 268.531L197.971 250.924L184.07 208.2L210.7 168H254.667Z" fill="#51517A"/>
<path d="M80.2129 305.94L96.4092 354.529L111.589 349.469L96.5437 304.334C91.0784 304.648 85.6348 305.183 80.2129 305.94Z" fill="#7FDBAD"/>
<path d="M128.409 354.53L143.589 349.47L128.432 304H111.566L128.409 354.53Z" fill="#7FDBAD"/>
<path d="M160.409 354.53L175.589 349.47L160.432 304H143.566L160.409 354.53Z" fill="#7FDBAD"/>
<path d="M192.409 354.53L207.589 349.47L192.432 304H175.566L192.409 354.53Z" fill="#7FDBAD"/>
<path d="M224.409 354.53L239.589 349.47L224.432 304H207.566L224.409 354.53Z" fill="#7FDBAD"/>
<path d="M330.154 129.078L456.731 192.366C461.37 181.308 465.547 170.064 469.265 158.633L345.557 96.7793C340.148 107.411 335.014 118.177 330.154 129.078Z" fill="#434370"/>
<path d="M386.354 368.355L381.648 383.646L459.649 407.647L464.354 392.355L386.354 368.355Z" fill="#2C2C51"/>
<path d="M301.481 366.282L238.852 360.589C232.935 360.045 227.028 361.721 222.278 365.29L218.336 368.247C214.906 370.819 212.228 374.263 210.58 378.221C208.932 382.179 208.375 386.506 208.965 390.752C209.555 394.999 211.272 399.009 213.938 402.367C216.603 405.725 220.119 408.308 224.12 409.847L284.805 433.187C287.914 434.383 291.238 434.919 294.566 434.76C297.893 434.601 301.151 433.751 304.132 432.264C307.113 430.777 309.752 428.686 311.881 426.123C314.01 423.561 315.582 420.583 316.497 417.38L322.384 396.777C323.354 393.381 323.562 389.814 322.995 386.329C322.428 382.844 321.099 379.527 319.102 376.614C317.106 373.702 314.492 371.266 311.446 369.48C308.4 367.694 304.997 366.602 301.481 366.282V366.282ZM306.999 392.382L301.112 412.984C300.807 414.052 300.283 415.044 299.574 415.899C298.864 416.753 297.985 417.45 296.991 417.946C295.998 418.441 294.912 418.725 293.802 418.778C292.693 418.831 291.585 418.652 290.549 418.254L229.864 394.914C228.53 394.401 227.358 393.54 226.47 392.421C225.581 391.302 225.009 389.965 224.812 388.549C224.615 387.134 224.801 385.691 225.35 384.372C225.899 383.053 226.792 381.905 227.936 381.047L231.878 378.09C233.461 376.9 235.43 376.341 237.402 376.523L300.031 382.217C301.204 382.323 302.338 382.687 303.353 383.282C304.369 383.878 305.24 384.69 305.906 385.661C306.571 386.631 307.014 387.737 307.203 388.899C307.392 390.061 307.323 391.25 306.999 392.382V392.382Z" fill="#2C2C51"/>
<path d="M402.352 407.737L397.646 423.029L477.646 447.645L482.352 432.353L402.352 407.737Z" fill="#2C2C51"/>
<path d="M410.352 444.661L405.646 459.953L493.646 487.03L498.352 471.738L410.352 444.661Z" fill="#2C2C51"/>
<path d="M112.67 296H108.011C88.6649 296.001 69.4137 298.7 50.8135 304.019C40.801 306.914 31.9965 312.977 25.72 321.298C19.4435 329.619 16.0331 339.75 16 350.172V352C15.9999 353.58 16.4674 355.124 17.3434 356.438C18.2195 357.752 19.4649 358.778 20.9228 359.385L21.8708 359.78L17.8857 385.949C17.617 387.713 17.9457 389.516 18.8195 391.071C19.6932 392.627 21.062 393.845 22.708 394.534L44.8496 403.793C46.4954 404.482 48.3244 404.601 50.0455 404.131C51.7665 403.66 53.2809 402.628 54.3476 401.198L70.2214 379.926L80.9287 384.388L76.9307 410.642C76.662 412.405 76.9906 414.208 77.8644 415.764C78.7382 417.32 80.1069 418.538 81.7529 419.227L103.895 428.486C105.54 429.175 107.369 429.294 109.09 428.824C110.811 428.353 112.326 427.321 113.393 425.891L129.318 404.55L139.987 408.995L135.976 435.335C135.707 437.098 136.035 438.901 136.909 440.457C137.783 442.012 139.152 443.231 140.798 443.92L162.939 453.179C164.585 453.868 166.414 453.987 168.136 453.517C169.857 453.046 171.371 452.014 172.438 450.584L188.415 429.174L199.044 433.602L195.019 460.027C194.751 461.791 195.079 463.594 195.953 465.15C196.827 466.705 198.196 467.924 199.842 468.612L221.983 477.872C223.629 478.561 225.458 478.68 227.179 478.209C228.9 477.739 230.415 476.707 231.481 475.276L247.51 453.797L258.101 458.21L254.064 484.72C253.796 486.484 254.124 488.287 254.998 489.843C255.872 491.398 257.241 492.617 258.887 493.305L281.028 502.565C282.674 503.254 284.503 503.373 286.225 502.902C287.946 502.432 289.46 501.4 290.527 499.969L310.01 473.861C318.646 472.667 326.655 468.679 332.81 462.504L342.589 452.726C348.351 446.979 352.215 439.606 353.659 431.597L367.871 353.432C368.102 352.159 368.022 350.85 367.636 349.616C367.251 348.381 366.571 347.259 365.657 346.344L363.134 343.821L378.742 327.172C444.252 257.294 485.373 168.082 495.951 72.8838L480.049 71.1172C478.938 81.1106 477.475 91.0333 475.658 100.885L379.305 52.7087L398.86 20.1162L385.14 11.8848L362.425 49.7446C345.404 78.128 330.387 107.666 317.483 138.143L303.583 170.997C303.859 167.367 303.998 163.702 304 160.001C304 80.5987 239.402 16.0005 160 16.0005C80.5977 16.0005 16 80.5986 16 160C16 222.828 56.4487 276.378 112.67 296ZM90.959 267.741L94.3003 217.556L113.381 203.75L172.076 223.049L179.531 245.962L153.171 287.818C131.038 286.661 109.593 279.74 90.959 267.741V267.741ZM267.975 255.164L250.698 296H207.33C230.712 287.813 251.596 273.751 267.975 255.164H267.975ZM172.341 287.403L191.516 256.958L224.865 270.306C208.822 279.787 190.891 285.624 172.341 287.403H172.341ZM240.59 259.366L194.748 241.017L187.231 217.914L220.296 168H244.253L278.301 208.858C270.113 228.561 257.154 245.918 240.59 259.366V259.366ZM175.13 207.211L120 189.083V130.971L174.918 113.444L206.376 160.042L175.13 207.211ZM45.2607 386.623L34.6445 382.183L37.0903 366.122L54.9932 373.581L45.2607 386.623ZM104.306 411.315L93.6895 406.875L96.1482 390.729L114.09 398.205L104.306 411.315ZM163.351 436.008L152.734 431.568L155.206 415.337L173.185 422.828L163.351 436.008ZM222.395 460.701L211.778 456.261L214.263 439.944L232.282 447.452L222.395 460.701ZM281.439 485.394L270.823 480.954L273.321 464.551L289.142 471.143C289.898 471.458 290.662 471.741 291.428 472.007L281.439 485.394ZM337.917 428.735C337.051 433.54 334.732 437.965 331.274 441.412L321.496 451.19C318.14 454.562 313.854 456.856 309.187 457.78C304.52 458.703 299.683 458.213 295.296 456.374L32.1856 346.745C32.8925 340.412 35.4631 334.432 39.5716 329.562C43.6802 324.692 49.1419 321.151 55.2646 319.388C64.2877 316.812 73.4876 314.901 82.7903 313.671L96.4102 354.53L111.59 349.471L99.1699 312.211C102.113 312.075 105.06 312.005 108.011 312H114.234L128.41 354.53L143.59 349.471L131.1 312H146.234L160.41 354.53L175.59 349.471L163.1 312H178.234L192.41 354.53L207.59 349.471L195.1 312H210.234L224.41 354.53L239.59 349.471L227.1 312H248.289C249.196 318.775 252.257 325.079 257.019 329.983C261.782 334.886 267.994 338.129 274.739 339.234L348.156 351.47L351.379 354.693L337.917 428.735ZM371.127 66.5083L472.362 117.126C470.096 127.277 467.466 137.332 464.473 147.292L356.39 93.2512C361.113 84.2208 366.026 75.3065 371.127 66.5083V66.5083ZM349.138 107.514L459.508 162.699C457.356 168.966 455.051 175.184 452.595 181.354L340.626 125.369C343.376 119.381 346.213 113.429 349.138 107.514H349.138ZM332.22 144.377C332.838 142.915 333.487 141.462 334.116 140.003L446.412 196.151C445.429 198.381 444.438 200.609 443.416 202.825C424.228 244.484 398.449 282.777 367.07 316.228L349.092 335.405L277.37 323.452C273.63 322.839 270.23 320.914 267.78 318.022C265.33 315.13 263.99 311.46 264 307.669V305.624L332.22 144.377ZM288 160C288.004 170.434 286.73 180.829 284.208 190.953L258.414 160L284.208 129.048C286.73 139.172 288.004 149.567 288 160V160ZM278.301 111.143L244.253 152H220.252L187.01 102.759L194.522 79.6165L241.04 60.9973C257.392 74.3969 270.189 91.6199 278.301 111.143V111.143ZM225.411 50.0186L191.286 63.6777L171.675 32.5383C190.672 34.2588 209.038 40.2332 225.411 50.0186V50.0186ZM152.566 32.2219L179.303 74.675L171.853 97.6272L113.427 116.273L93.8389 102.035L90.542 52.5347C109.098 40.4835 130.476 33.482 152.566 32.2219ZM75.2793 64.1396L77.6797 100.184L42.5832 109.064C50.0786 91.886 61.2376 76.5534 75.2793 64.1396V64.1396ZM32 160C31.9949 148.916 33.4326 137.877 36.2769 127.164L84.4331 114.979L104 129.202V190.789L84.906 204.606L36.1208 192.262C33.3786 181.728 31.9938 170.886 32 160V160ZM78.1426 219.398L75.6902 256.226C61.2887 243.604 49.8876 227.925 42.3191 210.334L78.1426 219.398Z" fill="#2C2C51"/>
<path d="M33.71 293.817L44.6943 282.184C37.2691 275.171 30.4931 267.501 24.4492 259.268L11.5488 268.732C18.1646 277.745 25.5819 286.141 33.71 293.817V293.817Z" fill="#2C2C51"/>
<path d="M327.944 84.7236C325.376 79.005 322.517 73.4213 319.379 67.9941L305.529 76.0059C308.394 80.9597 311.004 86.0565 313.349 91.2764L327.944 84.7236Z" fill="#2C2C51"/>
<path d="M268.732 11.5488L259.268 24.4492C274.027 35.2696 286.926 48.421 297.459 63.3872L310.541 54.1753C299.011 37.7912 284.89 23.394 268.732 11.5488V11.5488Z" fill="#2C2C51"/>
</svg>
