<?xml version="1.0" encoding="UTF-8" standalone="no"?> <svg xmlns="http://www.w3.org/2000/svg" viewBox="0 0 64 64"><title>stud</title><g id="_17-stud" data-name="17-stud"><path d="M20,9l-1.32,6.15-1.02,4.77L17,23l-1.02,4.76-1.17,5.45A36.6,36.6,0,0,0,14,40.88V47L9.93,50.26a3.4,3.4,0,0,1-4.94-.77L4,48l.87-16.44c.02-.45.03-.89.03-1.34a26.4,26.4,0,0,0-.26-3.76c-.07-.45-.12-.9-.16-1.35a26.833,26.833,0,0,1,.02-4.99c.09-.85.21-1.7.38-2.54L5,17l.95-4.78h.01L7,7Z" style="fill:#2f62b5"/><path d="M5.734,50.229l.87-16.44c.02-.45.03-.89.03-1.34a26.4,26.4,0,0,0-.26-3.76c-.07-.45-.12-.9-.16-1.35a26.833,26.833,0,0,1,.02-4.99c.09-.85.21-1.7.38-2.54l.12-.58.95-4.78h.01l1.04-5.22L19.592,10.9,20,9,7,7,5.96,12.22H5.95L5,17l-.12.58c-.17.84-.29,1.69-.38,2.54a26.833,26.833,0,0,0-.02,4.99c.04.45.09.9.16,1.35a26.4,26.4,0,0,1,.26,3.76c0,.45-.01.89-.03,1.34L4,48l.99,1.49a3.373,3.373,0,0,0,.783.8Z" style="fill:#acc0e1"/><path d="M17,23l-1.02,4.76L4.48,25.11a26.833,26.833,0,0,1,.02-4.99Z" style="fill:#fcc529"/><polygon points="18.68 15.15 17.66 19.92 5.14 17.03 5 17 5.95 12.22 5.96 12.22 18.68 15.15" style="fill:#fcc529"/><path d="M44,1,36.438,15.4l.3,1.769A3.386,3.386,0,0,0,38.7,19.69h0a3.388,3.388,0,0,0,2.234.186l5.047-1.314,2.5-5.589A36.625,36.625,0,0,1,52.344,6.3L56,1Z" style="fill:#2f62b5"/><path d="M38.017,18.893l-.3-1.769,7.562-14.4h9.528L56,1H44L36.438,15.4l.3,1.769a3.369,3.369,0,0,0,1.423,2.2A3.236,3.236,0,0,1,38.017,18.893Z" style="fill:#acc0e1"/><path d="M5,1H21V2.838A19.5,19.5,0,0,1,20,9h0L7,7Z" style="fill:#ffe0d2"/><polygon points="35.603 27.071 33.874 28.489 32.048 27.674 31.951 25.44 32.359 24.527 36.011 26.158 35.603 27.071" style="fill:#2f62b5"/><polygon points="41.081 29.519 39.352 30.937 37.526 30.121 37.429 27.887 37.837 26.974 41.489 28.606 41.081 29.519" style="fill:#2f62b5"/><polygon points="54.777 35.637 53.048 37.055 51.222 36.24 51.124 34.006 51.532 33.093 55.184 34.724 54.777 35.637" style="fill:#2f62b5"/><polygon points="49.298 33.19 47.57 34.608 45.743 33.792 45.646 31.558 46.054 30.645 49.706 32.277 49.298 33.19" style="fill:#2f62b5"/><polygon points="8 59 7 61 5 61 4 59 4 58 8 58 8 59" style="fill:#2f62b5"/><polygon points="14 59 13 61 11 61 10 59 10 58 14 58 14 59" style="fill:#2f62b5"/><polygon points="29 59 28 61 26 61 25 59 25 58 29 58 29 59" style="fill:#2f62b5"/><polygon points="23 59 22 61 20 61 19 59 19 58 23 58 23 59" style="fill:#2f62b5"/><path d="M59.94,33.42a2.229,2.229,0,0,1-3.13,2.03l-8.02-3.58-7.3-3.26V28.6L30.53,23.71a20.026,20.026,0,0,1,1.52-4.84,19.781,19.781,0,0,1,1.48-2.66l1.08-1.63,1.83.82.3,1.76a3.384,3.384,0,0,0,1.95,2.53,3.423,3.423,0,0,0,1.4.3,3.46,3.46,0,0,0,.84-.11l5.05-1.32,2.37,2.89a59.191,59.191,0,0,0,8.78,8.7c.63.52,1.26,1.01,1.91,1.49A2.25,2.25,0,0,1,59.94,33.42Z" style="fill:#db4d4d"/><path d="M41.49,28.6,30.53,23.71a20.026,20.026,0,0,1,1.52-4.84l3.66,2.25a12.285,12.285,0,0,1,4.38,4.78Z" style="fill:#fcc529"/><path d="M59.94,33.42a2.229,2.229,0,0,1-3.13,2.03l-8.02-3.58a6.323,6.323,0,0,1,5.29-2.02l3.03.3h.02c.63.52,1.26,1.01,1.91,1.49A2.25,2.25,0,0,1,59.94,33.42Z" style="fill:#fcc529"/><path d="M33,55.78A2.219,2.219,0,0,1,30.78,58H2a20.025,20.025,0,0,1-.59-4.8V53a19.785,19.785,0,0,1,.27-3.07L2,48H4l.99,1.49a3.4,3.4,0,0,0,4.94.77L14,47l3.35,1.67a60.084,60.084,0,0,0,11.57,4.37q1.17.315,2.34.57A2.224,2.224,0,0,1,33,55.78Z" style="fill:#db4d4d"/><path d="M63,49.69a13.023,13.023,0,1,1-26.037.665c-.006-.238-.005-.474,0-.709A13.018,13.018,0,0,1,49.645,37c.262-.006.521,0,.779,0A13.01,13.01,0,0,1,63,49.69Z" style="fill:#fcfcfc"/><path d="M33,55.78A2.219,2.219,0,0,1,30.78,58H22a6.32,6.32,0,0,1,4-4l2.89-.96h.03q1.17.315,2.34.57A2.224,2.224,0,0,1,33,55.78Z" style="fill:#fcc529"/><polygon points="43.891 47.899 48.987 44.219 54.082 47.899 51.818 53.844 45.873 53.844 43.891 47.899" style="fill:#4c4641"/><polygon points="47.088 52.272 45.293 46.887 43.891 47.899 45.873 53.844 51.818 53.844 52.417 52.272 47.088 52.272" style="fill:#94908d"/><path d="M14,58H2a20.025,20.025,0,0,1-.59-4.8V53l4.27.53a12.207,12.207,0,0,1,5.94,2.57Z" style="fill:#fcc529"/><path d="M36.96,49.646a12.955,12.955,0,0,1,2.284-7h0l1.25.157.283,4.529L36.96,49.646Z" style="fill:#4c4641"/><path d="M40.521,43.244l-.027-.44-1.25-.157h0a12.955,12.955,0,0,0-2.284,7h0l1.6-.968A12.942,12.942,0,0,1,40.521,43.244Z" style="fill:#94908d"/><path d="M49.645,37l2.173,1.836-3.681,1.982-5.214-1.747h0A12.967,12.967,0,0,1,49.645,37Z" style="fill:#4c4641"/><path d="M51.009,38.157,49.645,37a12.967,12.967,0,0,0-6.722,2.07h0l2.3.77A12.95,12.95,0,0,1,51.009,38.157Z" style="fill:#94908d"/><path d="M60.222,41.982l-3.309-.028v4.813l3.681,3.4,2.151-2.714,0-.028a12.955,12.955,0,0,0-2.518-5.44Z" style="fill:#4c4641"/><path d="M59.355,43.509h0a12.972,12.972,0,0,1,2.439,5.141l.951-1.2,0-.028a12.955,12.955,0,0,0-2.518-5.44h0l-3.309-.028v1.535Z" style="fill:#94908d"/><path d="M37.694,54.358l6.2,1.468,1.982,4.246-2.324,1.277h0a13.063,13.063,0,0,1-5.855-6.992Z" style="fill:#4c4641"/><path d="M43.755,59.6h0a13.079,13.079,0,0,1-4.939-4.982l-1.122-.265h0a13.057,13.057,0,0,0,5.855,6.991h0l2.324-1.277-.606-1.3Z" style="fill:#94908d"/><path d="M59.829,58.538l-.651-3.561-4.812,1.132-1.982,3.68,3.305,1.94h0a13.048,13.048,0,0,0,4.141-3.191Z" style="fill:#4c4641"/><path d="M59.543,56.971a13.033,13.033,0,0,1-3.854,2.891h0L53.148,58.37l-.764,1.419,3.305,1.94h0a13.048,13.048,0,0,0,4.141-3.191h0Z" style="fill:#94908d"/><path d="M60.689,55.729a13.017,13.017,0,0,1-18.73-11.374c-.006-.238-.005-.474,0-.709a12.93,12.93,0,0,1,.971-4.576l-.008,0a13.1,13.1,0,0,0-3.679,3.573,12.955,12.955,0,0,0-2.284,7c-.006.235-.007.471,0,.709a13.011,13.011,0,0,0,25.052,4.619A13.042,13.042,0,0,1,60.689,55.729Z" style="opacity:0.2"/><path d="M63.721,47.223a14.023,14.023,0,0,0-8.875-10.349l.564-.463a1,1,0,0,0,.279-.365h0l.712.318a3.22,3.22,0,0,0,3.234-5.524A59.452,59.452,0,0,1,49.122,20.821l-1.981-2.415,2.245-5.025a35.7,35.7,0,0,1,3.781-6.512l3.656-5.3A1,1,0,0,0,56,0H44a1,1,0,0,0-.886.535L35.988,14.1l-.968-.433a1,1,0,0,0-1.243.361L32.7,15.661a20.684,20.684,0,0,0-3.147,7.876,1,1,0,0,0,.576,1.087l.913.408a1,1,0,0,0-.086.451l.1,2.234a1,1,0,0,0,.591.87l1.826.815a1,1,0,0,0,1.042-.14l1.728-1.418a1.009,1.009,0,0,0,.28-.364.987.987,0,0,0-.086.451l.1,2.234a1,1,0,0,0,.591.869l1.826.816a1,1,0,0,0,1.043-.14l1.729-1.418a1.016,1.016,0,0,0,.278-.365h0l2.74,1.223h0a1.011,1.011,0,0,0-.086.451l.1,2.233a1,1,0,0,0,.591.87l1.826.816a.992.992,0,0,0,.408.087,1,1,0,0,0,.635-.226l1.73-1.419a1.018,1.018,0,0,0,.277-.365,1,1,0,0,0-.086.452l.086,1.957c-.2,0-.393-.007-.591,0A14.021,14.021,0,0,0,35.96,49.621c-.006.251-.007.5,0,.759A14.019,14.019,0,0,0,49.977,64.045c.119,0,.239,0,.358,0A14.023,14.023,0,0,0,64,49.665h0A14.389,14.389,0,0,0,63.721,47.223Zm-11.935-7.23,4.127,2.522V46.09l-1.692.676-4.354-3.145L49.3,41.334Zm1.194-1.615a11.974,11.974,0,0,1,4.88,2.584l-.661-.006Zm-.835-3.916,1.611.72-.864.709-.7-.313Zm6.3-2.017a1.219,1.219,0,0,1-1.224,2.092l-6.544-2.923a5.344,5.344,0,0,1,3.305-.77l2.788.275C57.324,31.563,57.871,32.02,58.442,32.445ZM44.6,2H54.1l-2.56,3.711a37.717,37.717,0,0,0-3.976,6.854l-2.3,5.151-4.582,1.192A2.387,2.387,0,0,1,37.724,17l-.244-1.436ZM33.718,27.324l-.7-.311L32.972,25.9l1.61.719Zm2.7-2.079h0l-.156-.07-4.594-2.052a18.733,18.733,0,0,1,.857-2.782l2.655,1.63a11.3,11.3,0,0,1,4.024,4.386l.089.172-.516-.23ZM39.2,29.772l-.7-.312-.049-1.117,1.611.72Zm8.217,3.671-.7-.312-.049-1.117,1.61.72Zm1.172-2.763-6.368-2.844-1.235-2.395a13.307,13.307,0,0,0-4.745-5.169L33.352,18.5a19.243,19.243,0,0,1,1.011-1.735l.614-.927.564.252.21,1.241a4.387,4.387,0,0,0,5.43,3.512l4.427-1.153,1.181,1.439-2.473,1.56,1.067,1.691,2.7-1.705c.53.629,1.069,1.251,1.623,1.858l-2.558,1.613,1.067,1.692,2.9-1.83q1.435,1.47,2.966,2.841A7.355,7.355,0,0,0,48.585,30.68Zm.733,7.357.733.619-2.006,1.08-2.535-.849A12,12,0,0,1,49.318,38.037Zm-6.23,2.148L47.3,41.6l.551,2.208-4.2,3.036-1.923-.35-.235-3.749a.991.991,0,0,0-.442-.753A11.989,11.989,0,0,1,43.088,40.185Zm-3.52,3.824.173,2.782-1.563.948A11.909,11.909,0,0,1,39.568,44.009ZM43.582,60.19A12.032,12.032,0,0,1,39.439,55.8l3.75.89,1.382,2.958Zm0-5.465-5.1-1.209a12.055,12.055,0,0,1-.521-3.186c0-.04,0-.079,0-.119l3.014-1.827,2.156.393,1.6,4.8Zm5.408-9.273,3.888,2.809-1.746,4.583H46.594L45.071,48.28Zm-2.7,9.392h5.151l1.672,1.487-1.337,2.484-5.276.229-1.4-3.006Zm4,7.2a11.981,11.981,0,0,1-4.516-.771l.381-.209,5.984-.26,1.255.736A12,12,0,0,1,50.284,62.041Zm5.421-1.462-1.983-1.165,1.31-2.435,3.352-.789.371,2.028A11.983,11.983,0,0,1,55.705,60.579Zm2.678-6.443-3.742.881L53,53.556l1.863-4.891L56.7,47.93l2.76,2.548Zm-.47-7.807V42.962l1.785.015a12.022,12.022,0,0,1,1.955,4.241L60.479,48.7Zm2.475,9.707L60.2,55.031l1.294-4.4.492-.621A11.976,11.976,0,0,1,60.388,56.036Z"/><path d="M31.479,52.637a59.381,59.381,0,0,1-13.685-4.859L15,46.382v-5.5a35.7,35.7,0,0,1,.79-7.46L20.973,9.23A20.42,20.42,0,0,0,22,2.838V1a1,1,0,0,0-1-1H5a1,1,0,0,0-.948,1.316L5.968,7.064,3.9,17.386A27.27,27.27,0,0,0,3.646,26.6a25.158,25.158,0,0,1,.22,4.907L3.051,47H2a1,1,0,0,0-.986.836L.691,49.769a20.709,20.709,0,0,0,.339,8.473A1,1,0,0,0,2,59H3a1,1,0,0,0,.1.447l1,2A1,1,0,0,0,5,62H7a1,1,0,0,0,.895-.553l1-2A1,1,0,0,0,9,59a1,1,0,0,0,.105.447l1,2A1,1,0,0,0,11,62h2a1,1,0,0,0,.895-.553l1-2A1,1,0,0,0,15,59h3a1,1,0,0,0,.105.447l1,2A1,1,0,0,0,20,62h2a1,1,0,0,0,.895-.553l1-2A1,1,0,0,0,24,59a1,1,0,0,0,.105.447l1,2A1,1,0,0,0,26,62h2a1,1,0,0,0,.895-.553l1-2A1,1,0,0,0,30,59h.78a3.22,3.22,0,0,0,.7-6.363ZM17.916,13.954,7.127,11.464l.666-3.33L18.8,9.827ZM17.5,15.91l-.6,2.808L6.171,16.244l.563-2.817Zm-1.02,4.764L16.235,21.8,5.619,19.347c.051-.379.109-.759.178-1.137Zm-.66,3.079-.6,2.808L5.426,24.3a25.177,25.177,0,0,1,0-2.946ZM5.637,26.4,14.8,28.517,13.835,33A37.663,37.663,0,0,0,13,40.878v5.641L9.3,49.477a2.386,2.386,0,0,1-3.476-.539l-.811-1.216.848-16.107A27.258,27.258,0,0,0,5.637,26.4ZM20,2v.838a18.463,18.463,0,0,1-.715,5.04L7.755,6.1,6.388,2ZM6.382,60H5.618l-.5-1H6.882ZM10,57H2.8a18.649,18.649,0,0,1-.349-2.865l3.086.381A11.291,11.291,0,0,1,11,56.879l.151.121Zm2.382,3h-.764l-.5-1h1.764Zm9,0h-.764l-.5-1h1.764Zm-.056-3H14.352l-2.105-1.684A13.33,13.33,0,0,0,5.8,52.533l-3.349-.412A19.009,19.009,0,0,1,2.664,50.1L2.847,49h.618l.7,1.047a4.387,4.387,0,0,0,6.39.992l3.572-2.858,1.665.832-1.622,2.432,1.664,1.11,1.774-2.661c.74.359,1.485.707,2.239,1.035l-1.677,2.516,1.664,1.11,1.9-2.855q1.91.757,3.867,1.385A7.354,7.354,0,0,0,21.326,57Zm6.056,3h-.764l-.5-1h1.764Zm3.4-3H23.614a5.347,5.347,0,0,1,2.7-2.052l2.658-.886c.689.179,1.375.373,2.07.527A1.22,1.22,0,0,1,30.78,57Z"/></g></svg>